{"glyphs":{"0":{"ha":630,"x_min":0,"x_max":630,"o":"m 244 -87 l 244 -87 q 178 -87 136 -50 q 94 -14 74 46 q 53 105 53 174 l 53 174 q 53 242 70 318 q 87 393 119 465 q 151 536 196 594 q 240 651 296 686 q 351 720 415 720 l 415 720 q 476 720 520 690 q 564 659 589 604 q 613 549 613 474 l 613 474 q 613 393 595 312 q 577 231 544 160 q 510 88 465 33 q 419 -23 363 -55 q 307 -87 244 -87 z m 258 -53 l 258 -53 q 303 -53 345 -18 q 386 17 421 76 q 456 135 482 207 q 508 279 523 354 q 537 429 537 495 l 537 495 q 537 552 525 597 q 513 641 487 667 q 460 693 416 693 l 416 693 q 371 693 333 666 q 294 639 263 594 q 232 548 209 492 q 185 435 169 374 q 153 313 145 256 q 137 199 137 153 l 137 153 q 137 60 170 4 q 202 -53 258 -53 z"},"1":{"ha":365,"x_min":0,"x_max":365,"o":"m 30 -87 l 30 -87 q 12 -87 -10 -76 q -32 -66 -46 -46 l -46 -46 q -38 -47 -30 -47 q -22 -48 -14 -48 l -14 -48 q 12 -48 40 -44 q 68 -41 94 -37 l 94 -37 q 112 5 129 67 q 145 128 160 199 q 175 270 189 342 q 202 413 215 476 q 227 539 238 584 l 238 584 q 181 544 157 531 q 132 518 123 518 l 123 518 q 111 518 105 524 q 98 529 98 547 l 98 547 q 117 557 153 583 q 188 609 230 645 q 272 681 308 720 l 308 720 q 313 716 315 707 q 317 697 317 689 l 317 689 q 317 664 308 636 q 299 607 294 577 l 294 577 q 284 508 269 426 q 254 344 235 261 q 215 177 192 102 q 169 26 142 -30 l 142 -30 q 153 -28 163 -27 q 173 -27 182 -27 l 182 -27 q 220 -27 246 -37 q 272 -48 279 -83 l 279 -83 q 259 -81 240 -79 q 220 -78 200 -78 l 200 -78 q 169 -78 140 -80 q 111 -82 84 -84 q 57 -87 30 -87 z"},"2":{"ha":559,"x_min":0,"x_max":559,"o":"m 398 -87 l 398 -87 q 369 -87 331 -76 q 293 -65 251 -47 q 208 -30 163 -11 l 163 -11 q 132 -31 104 -42 q 75 -54 49 -54 l 49 -54 q 19 -54 0 -39 q -19 -24 -19 0 l -19 0 q -19 23 -1 36 q 17 48 56 48 l 56 48 q 78 48 105 44 q 131 40 161 34 l 161 34 q 207 75 254 135 q 301 195 341 267 q 380 338 405 412 q 429 485 429 551 l 429 551 q 429 626 399 660 q 369 693 323 693 l 323 693 q 279 693 249 667 q 218 640 202 594 q 186 548 186 491 l 186 491 q 186 471 189 457 q 191 442 198 423 l 198 423 q 197 423 196 423 q 195 423 193 423 l 193 423 q 159 432 141 452 q 123 471 123 512 l 123 512 q 123 566 151 614 q 178 661 227 691 q 275 720 339 720 l 339 720 q 389 720 425 696 q 460 671 480 630 q 499 589 499 538 l 499 538 q 499 488 486 438 q 473 388 452 341 l 452 341 q 426 283 387 225 q 348 166 303 114 q 257 62 209 23 l 209 23 q 283 7 336 -3 q 388 -14 424 -14 l 424 -14 q 443 -14 460 -8 q 476 -3 500 11 l 500 11 q 487 -40 463 -63 q 438 -87 398 -87 z m 48 -27 l 48 -27 q 64 -27 83 -18 q 102 -10 123 4 l 123 4 q 100 12 81 17 q 61 22 47 22 l 47 22 q 27 22 20 14 q 12 5 12 -2 l 12 -2 q 12 -13 24 -20 q 35 -27 48 -27 z"},"3":{"ha":510,"x_min":0,"x_max":510,"o":"m 170 -87 l 170 -87 q 109 -87 73 -64 q 37 -42 22 -9 q 6 24 6 55 l 6 55 q 6 81 15 106 q 24 130 42 147 q 60 163 87 163 l 87 163 q 92 163 97 163 q 101 163 105 162 l 105 162 q 91 150 82 123 q 73 95 73 69 l 73 69 q 73 38 86 10 q 99 -19 123 -37 q 147 -55 179 -55 l 179 -55 q 219 -55 256 -27 q 293 1 317 52 q 341 102 341 168 l 341 168 q 341 207 331 245 q 320 283 296 312 q 272 340 230 351 l 230 351 q 279 373 316 415 q 352 456 372 505 q 392 554 392 596 l 392 596 q 392 649 365 671 q 337 693 302 693 l 302 693 q 274 693 248 681 q 222 668 205 644 q 188 620 188 585 l 188 585 q 188 570 192 553 q 196 535 204 518 l 204 518 q 199 508 187 499 q 175 490 164 490 l 164 490 q 152 490 144 503 q 135 515 131 534 q 127 552 127 569 l 127 569 q 127 618 155 652 q 183 685 226 703 q 269 720 314 720 l 314 720 q 354 720 389 706 q 424 692 446 664 q 468 635 468 591 l 468 591 q 468 558 455 522 q 441 486 417 453 q 393 420 362 396 q 330 371 293 361 l 293 361 q 351 347 384 314 q 416 281 430 242 q 443 203 443 168 l 443 168 q 443 121 423 76 q 402 30 365 -6 q 328 -43 279 -65 q 229 -87 170 -87 z"},"4":{"ha":478,"x_min":0,"x_max":478,"o":"m 297 -87 l 297 -87 q 263 -84 242 -73 q 220 -62 220 -40 l 220 -40 q 220 -40 222 -25 q 224 -10 230 27 q 236 64 248 130 l 248 130 q 249 136 255 165 q 261 194 270 236 l 270 236 q 248 236 226 237 q 204 237 187 237 l 187 237 q 161 237 138 237 q 115 236 95 235 q 74 233 56 231 q 38 229 22 227 q 6 224 -8 221 l -8 221 q -8 235 -3 246 q 1 256 10 263 l 10 263 q 50 310 107 364 q 164 418 226 477 q 288 536 343 598 q 397 659 432 720 l 432 720 q 436 719 440 713 q 443 706 443 694 l 443 694 q 443 671 424 639 l 424 639 q 419 616 408 565 q 396 513 382 442 q 368 371 352 288 l 352 288 q 362 288 373 288 q 383 288 394 288 l 394 288 q 413 288 427 289 q 441 290 454 294 l 454 294 q 435 268 409 252 q 383 235 364 235 l 364 235 q 359 235 353 235 q 347 235 342 235 l 342 235 q 339 220 336 205 q 333 190 331 175 l 331 175 q 327 152 321 115 q 315 77 310 37 q 304 -4 301 -38 q 297 -72 297 -87 z m 80 288 l 80 288 q 102 291 128 292 q 153 293 181 293 l 181 293 q 210 293 235 293 q 260 292 282 291 l 282 291 q 296 355 313 424 q 329 493 345 545 l 345 545 q 308 508 265 469 q 222 429 181 391 q 140 352 107 317 l 107 317 q 99 309 93 302 q 86 294 80 288 z"},"5":{"ha":483,"x_min":0,"x_max":483,"o":"m 166 -87 l 166 -87 q 101 -87 64 -64 q 27 -42 12 -9 q -3 23 -3 54 l -3 54 q -3 80 6 105 q 15 130 34 147 q 52 163 78 163 l 78 163 q 83 163 88 163 q 92 163 96 162 l 96 162 q 82 150 73 123 q 64 96 64 65 l 64 65 q 64 35 74 8 q 84 -20 107 -37 q 129 -55 166 -55 l 166 -55 q 206 -55 237 -34 q 268 -14 290 20 q 311 53 323 94 q 334 134 334 174 l 334 174 q 334 215 321 251 q 307 286 278 308 q 249 330 200 330 l 200 330 q 183 330 159 327 q 134 324 108 319 l 108 319 q 112 347 122 389 q 132 430 145 478 q 158 525 172 572 q 185 618 196 655 q 207 692 212 713 l 212 713 q 242 706 269 703 q 295 700 318 700 l 318 700 q 359 700 396 706 q 433 712 473 720 l 473 720 q 475 712 476 705 q 477 698 477 693 l 477 693 q 477 664 458 648 q 439 631 411 625 q 383 618 354 618 l 354 618 q 317 618 291 625 q 264 631 245 631 l 245 631 q 236 631 232 628 q 228 624 222 611 l 222 611 q 214 592 204 561 q 194 530 185 495 q 175 460 167 428 q 158 395 153 374 q 147 352 146 348 l 146 348 q 167 353 189 356 q 211 358 233 358 l 233 358 q 301 358 345 334 q 388 309 410 266 q 431 223 431 169 l 431 169 q 431 97 397 39 q 363 -19 303 -53 q 243 -87 166 -87 z"},"6":{"ha":561,"x_min":0,"x_max":561,"o":"m 253 -87 l 253 -87 q 179 -87 134 -54 q 89 -21 69 36 q 49 92 49 160 l 49 160 q 49 228 67 305 q 84 382 118 456 q 151 529 199 589 q 246 649 305 685 q 364 720 434 720 l 434 720 q 475 720 502 706 q 528 692 528 662 l 528 662 q 528 648 519 635 q 510 622 482 614 l 482 614 q 482 622 483 627 q 484 632 484 642 l 484 642 q 484 664 474 681 q 463 697 429 697 l 429 697 q 381 697 339 663 q 297 628 263 571 q 228 514 202 446 q 176 377 160 309 l 160 309 q 193 340 238 357 q 283 374 329 374 l 329 374 q 379 374 421 354 q 462 333 487 291 q 512 248 512 180 l 512 180 q 512 104 479 44 q 446 -16 388 -51 q 329 -87 253 -87 z m 258 -55 l 258 -55 q 296 -55 327 -33 q 358 -12 380 23 q 402 58 414 101 q 425 143 425 186 l 425 186 q 425 240 408 274 q 390 308 362 324 q 333 340 300 340 l 300 340 q 240 340 205 312 q 169 283 154 238 q 138 192 138 140 l 138 140 q 138 112 143 79 q 148 45 161 15 q 173 -16 197 -35 q 221 -55 258 -55 z"},"7":{"ha":403,"x_min":0,"x_max":403,"o":"m 95 -87 l 95 -87 q 82 -87 72 -75 q 61 -64 61 -42 l 61 -42 q 61 -13 80 39 q 98 91 129 159 q 159 226 195 299 l 195 299 q 177 299 152 298 q 126 296 101 294 q 76 292 59 289 l 59 289 q 60 319 82 333 q 103 346 136 350 q 168 354 200 354 l 200 354 q 206 354 212 354 q 218 354 224 354 l 224 354 q 264 429 310 502 q 355 575 389 635 l 389 635 q 371 635 342 634 q 312 632 282 631 q 251 629 228 629 l 228 629 q 170 629 148 643 q 126 656 126 676 l 126 676 q 126 694 139 718 l 139 718 q 167 714 192 709 q 216 704 247 701 q 277 698 322 698 l 322 698 q 369 698 414 703 q 459 708 490 718 l 490 718 q 483 706 467 683 q 451 660 436 643 l 436 643 q 399 588 358 514 q 317 440 276 351 l 276 351 q 304 350 327 348 q 350 346 375 346 l 375 346 q 389 346 395 347 q 401 348 407 349 l 407 349 q 391 325 372 312 q 352 298 328 298 l 328 298 q 314 298 296 298 q 277 298 252 299 l 252 299 q 235 258 214 208 q 193 157 178 106 q 163 55 163 11 l 163 11 q 163 -2 166 -12 q 168 -22 175 -27 l 175 -27 q 159 -61 134 -74 q 109 -87 95 -87 z"},"8":{"ha":527,"x_min":0,"x_max":527,"o":"m 204 -87 l 204 -87 q 153 -87 120 -71 q 86 -56 66 -30 q 46 -5 38 24 q 29 52 29 77 l 29 77 q 29 120 48 155 q 67 190 99 221 q 130 251 168 279 q 206 307 245 336 l 245 336 q 217 367 191 400 q 165 433 149 471 q 133 509 133 554 l 133 554 q 133 614 161 650 q 189 686 232 703 q 275 719 318 719 l 318 719 q 386 719 428 683 q 469 646 469 575 l 469 575 q 469 526 450 487 q 430 447 398 414 q 365 380 326 349 l 326 349 q 357 316 386 281 q 415 246 434 207 q 452 168 452 122 l 452 122 q 452 58 416 11 q 380 -36 323 -61 q 266 -87 204 -87 z m 214 -48 l 214 -48 q 251 -48 287 -27 q 322 -7 346 31 q 370 68 370 118 l 370 118 q 370 174 340 219 q 310 264 271 307 l 271 307 q 225 274 184 240 q 142 205 116 167 q 90 128 90 80 l 90 80 q 90 41 108 12 q 126 -17 155 -32 q 183 -48 214 -48 z m 300 379 l 300 379 q 347 419 379 467 q 411 514 411 576 l 411 576 q 411 635 384 664 q 356 692 319 692 l 319 692 q 297 692 272 680 q 246 668 229 641 q 211 613 211 567 l 211 567 q 211 511 238 466 q 264 420 300 379 z"},"9":{"ha":566,"x_min":0,"x_max":566,"o":"m 183 -87 l 183 -87 q 142 -87 115 -72 q 87 -58 87 -27 l 87 -27 q 87 -13 96 -1 q 105 11 131 19 l 131 19 q 131 12 131 7 q 130 2 130 -6 l 130 -6 q 130 -28 141 -46 q 152 -64 187 -64 l 187 -64 q 235 -64 276 -29 q 316 5 349 62 q 382 119 406 188 q 429 256 442 324 l 442 324 q 411 293 367 276 q 322 259 276 259 l 276 259 q 225 259 182 281 q 138 302 112 347 q 86 392 86 462 l 86 462 q 86 535 118 594 q 149 652 206 686 q 262 720 336 720 l 336 720 q 414 720 461 685 q 508 649 529 590 q 549 530 549 458 l 549 458 q 549 390 533 315 q 516 240 485 169 q 454 97 410 40 q 365 -18 308 -52 q 251 -87 183 -87 z m 304 293 l 304 293 q 384 293 421 342 q 457 391 457 469 l 457 469 q 457 506 452 545 q 446 583 433 616 q 419 648 395 668 q 370 688 332 688 l 332 688 q 295 688 266 668 q 236 647 216 614 q 195 580 184 539 q 173 498 173 456 l 173 456 q 173 399 192 363 q 210 327 240 310 q 270 293 304 293 z"}," ":{"ha":260,"x_min":0,"x_max":260,"o":""},"!":{"ha":260,"x_min":0,"x_max":260,"o":"m 93 291 l 93 291 q 110 333 131 389 q 152 444 176 502 q 200 560 225 610 q 249 659 272 690 q 295 720 314 720 l 314 720 q 322 720 328 714 q 334 707 334 697 l 334 697 q 334 683 320 646 q 305 608 281 555 q 256 501 226 440 q 195 379 162 317 q 129 254 98 199 q 66 143 40 102 l 40 102 q 39 103 39 104 q 38 104 37 105 l 37 105 q 47 150 58 187 q 68 224 78 251 q 88 277 93 291 z m 11 -10 l 11 -10 q -2 -10 -11 -3 q -21 3 -21 17 l -21 17 q -21 34 -1 46 q 18 58 37 58 l 37 58 q 49 58 56 53 q 63 48 63 34 l 63 34 q 63 19 47 5 q 31 -10 11 -10 z"},"\"":{"ha":245,"x_min":0,"x_max":245,"o":"m 268 576 l 268 576 q 259 581 255 591 q 251 601 251 613 l 251 613 q 251 634 260 659 q 269 684 283 702 q 297 720 312 720 l 312 720 q 322 720 330 712 q 337 703 337 692 l 337 692 q 309 663 296 634 q 282 605 268 576 z m 148 576 l 148 576 q 139 581 135 591 q 131 601 131 613 l 131 613 q 131 634 140 659 q 149 684 163 702 q 177 720 192 720 l 192 720 q 202 720 210 712 q 217 703 217 692 l 217 692 q 189 663 176 634 q 162 605 148 576 z"},"#":{"ha":668,"x_min":0,"x_max":668,"o":"m 102 -162 l 102 -162 q 119 -141 138 -92 q 156 -43 175 25 q 194 93 212 170 l 212 170 q 178 169 144 167 q 109 164 65 160 l 65 160 l 9 155 q 11 181 40 196 q 69 210 118 217 q 166 224 225 225 l 225 225 q 227 236 232 257 q 236 278 239 289 l 239 289 q 208 287 176 285 q 143 283 103 279 l 103 279 l 46 274 q 48 299 76 314 q 103 328 149 335 q 195 342 251 343 l 251 343 q 274 449 290 535 q 306 620 318 675 l 318 675 q 321 689 328 701 q 335 713 363 720 l 363 720 q 360 703 350 647 q 339 591 324 512 q 309 432 292 344 l 292 344 q 327 344 359 343 q 390 342 420 340 l 420 340 q 443 447 460 533 q 476 619 488 675 l 488 675 q 491 689 498 701 q 505 713 533 720 l 533 720 q 530 707 524 671 q 517 635 507 583 q 497 531 485 468 q 473 405 460 338 l 460 338 q 517 335 568 331 q 619 327 662 327 l 662 327 q 635 304 610 300 q 584 295 561 295 l 561 295 q 530 295 503 295 q 476 294 452 294 l 452 294 q 449 279 444 256 q 439 232 437 218 l 437 218 q 490 215 537 212 q 584 208 624 208 l 624 208 q 597 185 572 181 q 547 176 524 176 l 524 176 q 497 176 474 176 q 450 176 428 175 l 428 175 q 406 64 386 -11 q 365 -86 339 -124 q 313 -162 272 -162 l 272 -162 q 290 -140 309 -90 q 327 -41 346 28 q 365 96 383 172 l 383 172 l 257 172 q 234 62 215 -12 q 195 -87 169 -124 q 143 -162 102 -162 z m 394 221 l 394 221 l 410 293 q 371 293 340 293 q 309 292 281 291 l 281 291 l 268 225 q 300 225 332 224 q 364 223 394 221 z"},"$":{"ha":531,"x_min":0,"x_max":531,"o":"m 135 -162 l 135 -162 q 146 -148 159 -120 q 171 -93 184 -56 l 184 -56 q 135 -53 94 -35 q 52 -18 27 15 q 1 47 1 95 l 1 95 q 1 140 22 169 q 42 198 72 212 q 102 226 129 226 l 129 226 q 102 197 88 162 q 74 127 74 93 l 74 93 q 74 42 105 12 q 136 -18 194 -24 l 194 -24 q 212 36 231 111 q 249 185 266 263 l 266 263 q 233 283 202 305 q 170 326 150 357 q 129 388 129 433 l 129 433 q 129 488 159 535 q 189 581 239 612 q 288 643 346 652 l 346 652 q 349 664 352 678 q 355 691 365 703 q 374 714 396 720 l 396 720 q 395 713 392 696 q 388 678 384 655 l 384 655 q 451 655 474 626 q 497 597 497 551 l 497 551 q 497 512 485 470 q 472 428 449 390 l 449 390 q 431 394 423 407 q 414 419 414 432 l 414 432 q 414 449 424 476 q 433 503 442 532 q 451 561 451 582 l 451 582 q 451 605 435 618 q 419 631 379 631 l 379 631 q 364 553 350 475 q 335 397 320 319 l 320 319 q 355 301 387 279 q 419 256 440 224 q 461 192 461 143 l 461 143 q 461 83 429 41 q 397 -2 346 -26 q 294 -51 235 -56 l 235 -56 q 216 -108 192 -135 q 167 -162 135 -162 z m 245 -24 l 245 -24 q 313 -17 353 21 q 392 58 392 113 l 392 113 q 392 160 367 190 q 341 219 304 241 l 304 241 q 284 139 270 72 q 255 5 245 -24 z m 283 339 l 283 339 q 300 421 315 497 q 330 572 341 627 l 341 627 q 296 618 263 591 q 229 564 211 529 q 192 493 192 458 l 192 458 q 192 414 219 387 q 246 360 283 339 z"},"%":{"ha":698,"x_min":0,"x_max":698,"o":"m 78 -87 l 78 -87 q 101 -64 137 -12 q 172 40 215 111 q 257 181 301 260 q 345 339 386 417 q 426 495 458 562 q 490 629 508 675 l 508 675 q 512 685 526 695 q 540 705 558 713 q 576 720 592 720 l 592 720 q 587 706 567 665 q 546 623 516 564 q 486 505 452 439 q 417 372 382 307 q 346 241 316 187 q 285 132 263 97 l 263 97 q 211 15 166 -36 q 121 -87 78 -87 z m 180 347 l 180 347 q 137 347 118 380 q 98 412 98 455 l 98 455 q 98 488 109 526 q 119 563 139 596 q 158 628 185 649 q 211 669 243 669 l 243 669 q 281 669 304 641 q 327 612 327 565 l 327 565 q 327 533 316 496 q 305 458 286 424 q 266 390 239 369 q 212 347 180 347 z m 186 385 l 186 385 q 204 385 220 404 q 236 422 249 451 q 261 479 268 512 q 275 545 275 573 l 275 573 q 275 599 268 616 q 260 633 243 633 l 243 633 q 221 633 204 614 q 187 594 176 564 q 165 534 159 503 q 153 471 153 447 l 153 447 q 153 419 162 402 q 170 385 186 385 z m 503 0 l 503 0 q 460 0 441 33 q 421 65 421 108 l 421 108 q 421 141 432 179 q 442 216 462 249 q 481 281 508 302 q 534 322 566 322 l 566 322 q 604 322 627 294 q 650 265 650 218 l 650 218 q 650 187 639 149 q 628 111 609 78 q 589 44 562 22 q 535 0 503 0 z m 509 38 l 509 38 q 527 38 543 57 q 559 75 572 104 q 584 132 591 165 q 598 198 598 226 l 598 226 q 598 252 591 269 q 583 286 566 286 l 566 286 q 544 286 527 267 q 510 247 499 217 q 488 187 482 156 q 476 124 476 101 l 476 101 q 476 73 485 56 q 493 38 509 38 z"},"&":{"ha":616,"x_min":0,"x_max":616,"o":"m 192 -87 l 192 -87 q 132 -87 88 -62 q 44 -37 21 5 q -3 46 -3 95 l -3 95 q -3 141 17 185 q 37 229 73 266 q 108 302 155 326 q 202 349 256 354 l 256 354 q 217 386 199 428 q 180 470 180 512 l 180 512 q 180 565 207 613 q 234 660 281 690 q 327 719 387 719 l 387 719 q 441 719 469 692 q 496 665 496 613 l 496 613 q 496 576 484 541 q 472 505 455 483 q 437 460 420 460 l 420 460 q 409 460 399 470 q 389 479 383 492 l 383 492 q 418 523 442 557 q 465 590 465 629 l 465 629 q 465 660 449 680 q 432 699 397 699 l 397 699 q 350 699 318 671 q 286 642 270 596 q 253 549 253 495 l 253 495 q 253 471 258 444 q 262 417 275 391 q 287 365 311 344 l 311 344 q 244 333 195 293 q 145 253 118 199 q 90 145 90 92 l 90 92 q 90 59 103 26 q 115 -8 143 -30 q 171 -53 218 -53 l 218 -53 q 271 -53 321 -26 q 370 1 411 46 q 451 91 477 148 q 503 204 510 264 l 510 264 q 489 263 472 261 q 454 259 433 256 q 412 252 379 245 l 379 245 q 381 287 411 301 q 441 315 483 315 l 483 315 q 513 315 540 311 q 567 307 592 303 q 616 299 636 298 l 636 298 q 625 275 615 271 q 604 266 594 266 l 594 266 q 577 266 563 266 q 548 265 536 265 l 536 265 q 529 196 499 133 q 468 70 421 21 q 373 -29 315 -58 q 256 -87 192 -87 z"},"'":{"ha":125,"x_min":0,"x_max":125,"o":"m 148 576 l 148 576 q 139 581 135 591 q 131 601 131 613 l 131 613 q 131 634 140 659 q 149 684 163 702 q 177 720 192 720 l 192 720 q 202 720 210 712 q 217 703 217 692 l 217 692 q 189 663 174 633 q 158 602 148 576 z"},"(":{"ha":258,"x_min":0,"x_max":258,"o":"m 142 -87 l 142 -87 q 118 -72 99 -31 q 79 9 68 67 q 57 124 57 189 l 57 189 q 57 285 80 367 q 103 448 140 514 q 176 579 218 625 q 260 671 299 696 q 337 720 364 720 l 364 720 q 298 673 251 609 q 203 544 173 469 q 143 394 129 316 q 115 237 115 162 l 115 162 q 115 87 128 29 q 140 -30 162 -66 l 162 -66 q 158 -74 153 -79 q 148 -84 142 -87 z"},")":{"ha":268,"x_min":0,"x_max":268,"o":"m -39 -87 l -39 -87 q -46 -85 -51 -78 q -57 -71 -61 -63 l -61 -63 q 9 -14 67 64 q 125 142 161 246 q 196 349 196 475 l 196 475 q 196 537 183 599 q 169 660 125 720 l 125 720 q 152 713 181 678 q 209 642 228 581 q 247 520 247 435 l 247 435 q 247 345 225 266 q 202 186 167 122 q 131 57 92 10 q 52 -37 17 -62 q -18 -87 -39 -87 z"},"*":{"ha":391,"x_min":0,"x_max":391,"o":"m 355 404 l 355 404 q 342 419 317 457 q 292 494 266 532 l 266 532 q 241 483 215 446 q 189 408 163 408 l 163 408 q 180 433 191 453 q 201 472 210 493 q 219 513 231 539 l 231 539 q 186 539 154 545 q 121 550 116 572 l 116 572 q 141 574 168 575 q 195 576 233 577 l 233 577 q 212 612 199 643 q 185 673 185 692 l 185 692 q 185 701 190 707 q 195 713 199 718 l 199 718 q 217 680 232 650 q 246 620 267 588 l 267 588 q 290 637 309 674 q 328 710 362 718 l 362 718 q 353 693 334 656 q 314 618 295 577 l 295 577 q 315 578 341 579 q 367 580 392 575 q 416 569 433 551 l 433 551 l 303 539 q 315 521 327 504 q 339 486 347 463 q 355 439 355 404 z"},"+":{"ha":408,"x_min":0,"x_max":408,"o":"m 151 -11 l 151 -11 q 156 21 159 46 q 161 71 162 97 q 162 122 162 155 l 162 155 q 131 155 107 155 q 82 154 58 152 q 34 149 3 144 l 3 144 q 13 171 57 182 q 101 192 162 193 l 162 193 l 162 243 q 162 264 168 293 q 173 321 191 346 l 191 346 q 193 326 196 284 q 199 242 200 193 l 200 193 q 251 192 295 189 q 339 186 360 184 l 360 184 q 335 166 307 161 q 278 155 257 155 l 257 155 l 200 155 q 199 112 195 77 q 190 42 180 19 q 170 -4 151 -11 z"},",":{"ha":196,"x_min":0,"x_max":196,"o":"m 7 -88 l 7 -88 q -2 -83 -6 -73 q -10 -63 -10 -51 l -10 -51 q -10 -31 -1 -5 q 8 20 22 38 q 36 56 51 56 l 51 56 q 61 56 69 48 q 76 39 76 28 l 76 28 q 48 -1 35 -30 q 21 -59 7 -88 z"},"-":{"ha":484,"x_min":0,"x_max":484,"o":"m 36 144 l 36 144 q 42 159 59 169 q 75 178 100 184 q 125 189 157 191 q 189 193 225 193 l 225 193 q 252 193 277 192 q 302 191 325 190 q 347 188 365 187 q 382 185 393 184 l 393 184 q 354 159 320 157 q 285 155 250 155 l 250 155 q 223 155 197 155 q 170 155 149 155 l 149 155 q 132 155 114 154 q 96 152 77 150 q 58 148 36 144 z"},".":{"ha":214,"x_min":0,"x_max":214,"o":"m 40 -10 l 40 -10 q 27 -10 18 -3 q 8 3 8 17 l 8 17 q 8 28 17 38 q 26 47 40 53 q 53 58 66 58 l 66 58 q 78 58 85 53 q 92 48 92 34 l 92 34 q 92 24 85 14 q 77 4 65 -3 q 53 -10 40 -10 z"},"/":{"ha":330,"x_min":0,"x_max":330,"o":"m -68 -162 l -68 -162 q -48 -142 -21 -96 q 5 -51 36 12 q 66 75 98 149 q 130 222 162 298 q 193 374 222 446 q 250 517 274 577 q 297 636 312 675 l 312 675 q 316 685 330 695 q 344 705 362 713 q 380 720 396 720 l 396 720 q 391 708 376 671 q 361 634 339 581 q 317 528 291 465 q 265 402 238 337 q 211 271 186 211 q 160 150 140 101 q 119 52 107 22 l 107 22 q 70 -67 23 -114 q -25 -162 -68 -162 z"},":":{"ha":216,"x_min":0,"x_max":216,"o":"m 102 240 l 102 240 q 89 240 80 247 q 70 253 70 267 l 70 267 q 70 284 90 296 q 109 308 128 308 l 128 308 q 140 308 147 303 q 154 298 154 284 l 154 284 q 154 269 138 255 q 122 240 102 240 z m 42 -10 l 42 -10 q 29 -10 20 -3 q 10 3 10 17 l 10 17 q 10 34 30 46 q 49 58 68 58 l 68 58 q 80 58 87 53 q 94 48 94 34 l 94 34 q 94 19 78 5 q 62 -10 42 -10 z"},";":{"ha":213,"x_min":0,"x_max":213,"o":"m 18 -88 l 18 -88 q 9 -83 5 -73 q 1 -63 1 -51 l 1 -51 q 1 -31 10 -5 q 19 20 33 38 q 47 56 62 56 l 62 56 q 72 56 80 48 q 87 39 87 28 l 87 28 q 59 -1 46 -30 q 32 -59 18 -88 z m 102 240 l 102 240 q 89 240 80 247 q 70 253 70 267 l 70 267 q 70 284 90 296 q 109 308 128 308 l 128 308 q 140 308 147 303 q 154 298 154 284 l 154 284 q 154 269 138 255 q 122 240 102 240 z"},"<":{"ha":310,"x_min":0,"x_max":310,"o":"m 180 44 l 180 44 q 162 44 137 56 q 111 68 86 86 q 61 104 43 124 q 25 143 21 158 l 21 158 q 54 173 90 199 q 126 225 158 256 q 190 287 211 316 l 211 316 q 213 314 215 307 q 216 299 216 294 l 216 294 q 216 274 200 254 q 183 233 157 214 q 131 194 102 177 q 72 160 47 147 l 47 147 q 70 131 90 118 q 109 104 137 91 q 164 78 209 60 l 209 60 q 205 55 198 50 q 190 44 180 44 z"},"=":{"ha":503,"x_min":0,"x_max":503,"o":"m 52 206 l 52 206 q 60 226 87 237 q 113 247 153 251 q 193 255 241 255 l 241 255 q 277 255 310 254 q 343 252 369 250 q 395 248 409 246 l 409 246 q 384 228 356 223 q 327 217 306 217 l 306 217 l 205 217 q 175 217 152 217 q 129 216 106 214 q 83 211 52 206 z m 52 106 l 52 106 q 60 126 87 137 q 113 147 153 151 q 193 155 241 155 l 241 155 q 277 155 310 154 q 343 152 369 150 q 395 148 409 146 l 409 146 q 384 128 356 123 q 327 117 306 117 l 306 117 l 205 117 q 175 117 152 117 q 129 116 106 114 q 83 111 52 106 z"},">":{"ha":324,"x_min":0,"x_max":324,"o":"m 97 44 l 97 44 q 87 44 80 50 q 73 55 68 60 l 68 60 q 114 78 141 91 q 168 104 188 118 q 208 131 230 147 l 230 147 q 205 160 176 177 q 146 194 120 214 q 94 233 78 254 q 61 274 61 294 l 61 294 q 61 299 63 307 q 65 314 66 316 l 66 316 q 87 287 119 256 q 151 225 187 199 q 223 173 256 158 l 256 158 q 252 143 234 124 q 216 104 191 86 q 166 68 141 56 q 115 44 97 44 z"},"?":{"ha":437,"x_min":0,"x_max":437,"o":"m 233 124 l 233 124 q 214 134 208 143 q 202 152 202 171 l 202 171 q 202 219 222 258 q 241 297 270 333 q 298 368 326 405 q 354 441 374 484 q 393 526 393 579 l 393 579 q 393 635 371 664 q 348 692 314 692 l 314 692 q 279 692 244 664 q 209 635 186 587 q 163 539 163 480 l 163 480 q 163 463 165 450 q 167 437 170 423 l 170 423 q 132 429 120 450 q 108 470 108 500 l 108 500 q 108 557 135 607 q 161 657 209 689 q 256 720 318 720 l 318 720 q 380 720 417 686 q 453 652 453 587 l 453 587 q 453 543 438 509 q 422 475 398 446 q 373 416 346 386 q 318 355 295 320 q 271 284 258 237 l 258 237 q 248 203 246 176 q 244 149 233 124 z m 192 -10 l 192 -10 q 179 -10 170 -3 q 160 3 160 16 l 160 16 q 160 34 180 46 q 199 58 218 58 l 218 58 q 230 58 237 53 q 244 47 244 36 l 244 36 q 244 19 228 5 q 212 -10 192 -10 z"},"@":{"ha":583,"x_min":0,"x_max":583,"o":"m 216 -121 l 216 -121 q 141 -121 94 -91 q 47 -61 25 -13 q 3 35 3 88 l 3 88 q 3 145 26 200 q 49 255 92 299 q 134 343 193 369 q 251 395 322 395 l 322 395 q 395 395 442 369 q 488 342 511 301 q 533 259 533 214 l 533 214 q 533 177 520 141 q 506 105 482 75 q 458 45 427 27 q 395 9 359 9 l 359 9 q 326 9 311 25 q 295 41 295 68 l 295 68 q 295 74 296 79 q 296 83 297 88 l 297 88 q 263 42 230 19 q 196 -5 166 -5 l 166 -5 q 141 -5 124 12 q 107 28 107 61 l 107 61 q 107 97 127 140 q 146 182 179 220 q 212 258 251 283 q 290 307 329 307 l 329 307 q 360 307 381 291 q 402 274 402 247 l 402 247 q 402 234 397 227 q 392 219 383 216 q 374 213 362 213 l 362 213 q 364 219 365 227 q 366 234 366 240 l 366 240 q 366 259 358 272 q 349 285 328 285 l 328 285 q 300 285 271 261 q 241 237 217 201 q 192 165 177 127 q 162 89 162 60 l 162 60 q 162 43 168 36 q 174 28 184 28 l 184 28 q 203 28 226 47 q 249 65 273 94 q 296 122 317 152 q 337 181 352 202 l 352 202 q 360 201 372 196 q 384 191 384 182 l 384 182 q 384 173 373 154 q 361 135 350 113 q 338 90 338 69 l 338 69 q 338 59 344 48 q 350 36 372 36 l 372 36 q 404 36 434 62 q 463 87 482 127 q 501 166 501 208 l 501 208 q 501 246 483 282 q 464 318 425 342 q 386 365 322 365 l 322 365 q 258 365 206 341 q 154 316 117 275 q 79 234 59 185 q 39 135 39 84 l 39 84 q 39 39 57 -2 q 75 -43 116 -69 q 156 -96 222 -96 l 222 -96 q 275 -96 331 -75 q 386 -55 436 -11 l 436 -11 l 442 -19 q 404 -62 347 -91 q 290 -121 216 -121 z"},"A":{"ha":592,"x_min":0,"x_max":592,"o":"m 17 -87 l 17 -87 q -5 -74 -11 -59 q -17 -45 -17 -35 l -17 -35 q -17 -7 4 41 q 24 89 59 151 q 93 212 135 278 l 135 278 q 98 281 72 282 q 46 283 27 283 l 27 283 l -8 283 q 3 312 31 324 q 58 335 96 335 l 96 335 q 113 335 131 333 q 149 331 168 328 l 168 328 q 219 405 273 478 q 326 550 373 607 q 419 663 450 692 l 450 692 q 479 720 498 720 l 498 720 q 509 720 523 712 q 536 703 551 688 l 551 688 q 541 680 526 646 q 510 611 493 559 q 475 507 458 445 q 441 383 427 319 q 412 254 404 196 q 395 138 395 94 l 395 94 q 395 56 404 35 q 412 14 432 14 l 432 14 q 458 14 491 50 q 524 86 563 162 l 563 162 l 573 152 q 543 72 497 21 q 450 -30 400 -30 l 400 -30 q 359 -30 341 7 q 322 43 322 104 l 322 104 q 322 136 327 174 q 331 212 339 253 l 339 253 q 295 260 259 265 q 222 269 191 273 l 191 273 q 144 186 100 94 q 55 2 17 -87 z m 346 288 l 346 288 q 361 354 381 422 q 401 489 424 550 q 446 611 466 657 l 466 657 q 435 638 395 590 q 354 541 309 472 q 264 402 217 319 l 217 319 q 251 312 285 304 q 318 295 346 288 z"},"B":{"ha":608,"x_min":0,"x_max":608,"o":"m 130 -87 l 130 -87 q 75 -87 47 -68 q 19 -50 19 -7 l 19 -7 q 19 -4 24 -4 l 24 -4 q 31 -4 49 -9 q 67 -14 118 -14 l 118 -14 q 204 -14 277 6 q 350 25 404 59 q 457 93 487 136 q 516 178 516 223 l 516 223 q 516 264 493 289 q 470 314 433 327 q 395 340 351 345 q 307 349 264 349 l 264 349 q 245 349 226 349 q 206 348 189 348 l 189 348 q 166 267 144 185 q 122 103 99 26 l 99 26 q 74 26 57 40 q 40 54 40 74 l 40 74 q 40 86 45 102 q 50 118 54 131 l 54 131 q 60 151 75 198 q 90 245 112 308 q 133 371 159 440 q 185 509 213 575 q 240 641 266 692 l 266 692 q 224 685 196 672 q 167 659 151 649 q 135 638 128 638 l 128 638 q 123 638 116 643 q 108 647 102 654 q 96 660 96 665 l 96 665 q 146 686 201 703 q 255 720 333 720 l 333 720 q 366 720 406 715 q 446 709 482 693 q 518 676 541 645 q 564 613 564 561 l 564 561 q 564 512 543 478 q 522 443 488 421 q 454 398 414 385 q 374 372 335 366 l 335 366 q 409 362 455 345 q 500 328 524 305 q 547 281 555 255 q 563 229 563 205 l 563 205 q 563 147 533 100 q 503 53 454 18 q 405 -17 347 -40 q 289 -64 232 -75 q 175 -87 130 -87 z m 195 371 l 195 371 q 250 373 305 384 q 359 394 404 417 q 449 440 477 477 q 504 514 504 569 l 504 569 q 504 621 480 649 q 455 677 417 688 q 378 699 335 699 l 335 699 q 330 699 326 699 q 321 699 316 698 l 316 698 q 280 628 251 544 q 221 460 195 371 z"},"C":{"ha":534,"x_min":0,"x_max":534,"o":"m 219 -87 l 219 -87 q 148 -87 105 -51 q 61 -16 42 40 q 22 96 22 157 l 22 157 q 22 236 46 316 q 70 396 112 469 q 153 541 206 598 q 259 654 318 687 q 376 719 433 719 l 433 719 q 474 719 500 700 q 525 680 525 633 l 525 633 q 525 604 515 568 q 505 531 488 498 q 471 464 451 442 q 430 420 409 420 l 409 420 q 401 420 393 425 q 384 430 378 443 l 378 443 q 393 460 412 486 q 430 511 447 540 q 464 568 475 596 q 485 623 485 644 l 485 644 q 485 664 474 677 q 462 689 436 689 l 436 689 q 393 689 347 654 q 300 619 257 561 q 213 502 178 430 q 143 358 123 283 q 102 208 102 140 l 102 140 q 102 91 116 47 q 130 2 162 -25 q 193 -53 243 -53 l 243 -53 q 296 -53 349 -23 q 401 7 445 56 q 489 105 515 162 l 515 162 l 529 152 q 496 87 449 33 q 402 -22 344 -54 q 286 -87 219 -87 z"},"D":{"ha":653,"x_min":0,"x_max":653,"o":"m 163 -87 l 163 -87 q 132 -87 104 -78 q 76 -70 56 -42 l 56 -42 q 66 6 81 62 q 95 117 112 176 q 129 234 147 291 q 164 347 180 396 q 196 445 209 482 q 222 519 229 538 l 229 538 q 232 546 239 562 q 246 577 256 593 q 266 609 279 621 q 292 632 307 632 l 307 632 q 321 632 335 622 l 335 622 q 304 550 273 463 q 241 376 212 284 q 183 191 159 103 q 135 15 119 -57 l 119 -57 q 133 -59 143 -60 q 152 -61 162 -61 l 162 -61 q 226 -61 286 -31 q 345 -2 397 50 q 448 101 487 168 q 526 234 548 309 q 569 383 569 457 l 569 457 q 569 538 543 591 q 517 643 471 668 q 425 693 364 693 l 364 693 q 299 693 247 667 q 195 641 165 597 q 135 553 135 498 l 135 498 q 135 486 137 477 q 138 468 140 461 l 140 461 q 107 461 94 478 q 80 494 80 517 l 80 517 q 80 552 105 588 q 129 623 173 653 q 216 683 273 702 q 330 720 394 720 l 394 720 q 484 720 539 684 q 593 647 618 585 q 643 523 643 446 l 643 446 q 643 359 616 280 q 589 200 542 134 q 494 67 433 18 q 372 -32 303 -59 q 233 -87 163 -87 z"},"E":{"ha":498,"x_min":0,"x_max":498,"o":"m 180 -87 l 180 -87 q 120 -87 76 -62 q 32 -37 9 5 q -15 46 -15 95 l -15 95 q -15 141 5 185 q 25 229 61 266 q 96 302 143 326 q 190 349 244 354 l 244 354 q 205 386 187 428 q 168 470 168 512 l 168 512 q 168 565 195 613 q 221 660 268 690 q 315 719 374 719 l 374 719 q 430 719 459 691 q 488 663 488 611 l 488 611 q 488 574 475 539 q 462 504 444 482 q 425 460 408 460 l 408 460 q 397 460 387 470 q 377 479 371 492 l 371 492 q 406 523 431 558 q 455 592 455 631 l 455 631 q 455 662 437 679 q 419 696 384 696 l 384 696 q 338 696 306 669 q 274 641 258 596 q 241 550 241 495 l 241 495 q 241 459 252 417 q 263 375 299 344 l 299 344 q 232 333 183 293 q 133 253 106 199 q 78 145 78 92 l 78 92 q 78 59 91 26 q 103 -8 131 -30 q 159 -53 206 -53 l 206 -53 q 259 -53 312 -23 q 364 7 408 56 q 452 105 478 162 l 478 162 l 492 152 q 457 84 410 30 q 363 -24 305 -55 q 247 -87 180 -87 z"},"F":{"ha":482,"x_min":0,"x_max":482,"o":"m 152 -87 l 152 -87 q 106 -83 95 -62 q 84 -41 84 -8 l 84 -8 q 84 28 99 81 q 114 133 137 195 q 159 257 182 319 l 182 319 q 170 318 157 317 q 143 315 123 313 q 103 310 71 305 l 71 305 q 73 331 91 346 q 108 360 137 367 q 166 374 202 375 l 202 375 q 230 452 260 526 q 289 599 318 660 l 318 660 q 308 661 299 662 q 289 662 279 662 l 279 662 q 215 662 180 649 q 145 636 132 609 q 119 582 119 540 l 119 540 q 119 518 122 500 q 125 481 132 461 l 132 461 q 98 467 82 488 q 66 508 66 539 l 66 539 q 66 591 103 631 q 140 670 203 693 q 265 715 341 715 l 341 715 q 394 715 444 708 q 493 700 540 700 l 540 700 q 561 700 579 703 q 596 705 614 710 l 614 710 q 577 668 552 654 q 527 640 501 640 l 501 640 q 478 640 442 647 q 405 653 359 657 l 359 657 q 346 624 330 578 q 314 531 297 479 q 280 426 263 374 l 263 374 q 313 371 358 365 q 402 359 438 358 l 438 358 q 430 346 420 340 q 409 333 390 330 q 371 327 338 326 q 304 324 248 323 l 248 323 q 242 302 233 273 q 224 244 217 218 q 210 192 206 180 l 206 180 q 184 103 169 36 q 153 -31 152 -87 z"},"G":{"ha":554,"x_min":0,"x_max":554,"o":"m 209 -87 l 209 -87 q 157 -87 115 -57 q 72 -28 47 28 q 22 83 22 161 l 22 161 q 22 238 46 317 q 70 396 112 468 q 153 540 206 597 q 259 653 318 686 q 376 719 433 719 l 433 719 q 471 719 494 703 q 517 687 527 662 q 537 636 537 606 l 537 606 q 537 571 525 538 q 513 504 493 482 q 473 460 449 460 l 449 460 q 441 460 433 465 q 424 470 418 483 l 418 483 q 432 493 451 519 q 469 545 483 577 q 496 609 496 636 l 496 636 q 496 659 483 674 q 469 689 436 689 l 436 689 q 393 689 347 654 q 300 619 257 561 q 213 502 178 430 q 143 358 123 283 q 102 208 102 141 l 102 141 q 102 50 140 -1 q 178 -53 236 -53 l 236 -53 q 275 -53 310 -24 q 345 4 372 50 q 399 95 416 148 q 432 201 436 250 l 436 250 q 399 258 376 261 q 353 263 333 263 l 333 263 q 320 263 306 263 q 291 262 272 262 l 272 262 q 279 291 297 303 q 314 314 340 314 l 340 314 q 368 314 399 305 q 429 295 458 284 q 487 273 509 267 l 509 267 l 502 235 q 483 185 471 148 q 459 110 453 82 q 446 53 444 31 q 441 9 441 -9 l 441 -9 q 441 -29 443 -48 q 444 -67 445 -87 l 445 -87 q 429 -80 417 -70 q 404 -61 398 -47 q 391 -33 391 -15 l 391 -15 q 391 -4 393 7 q 394 18 398 31 l 398 31 q 362 -19 315 -53 q 268 -87 209 -87 z"},"H":{"ha":617,"x_min":0,"x_max":617,"o":"m 55 -87 l 55 -87 q 61 -52 69 -15 q 77 21 90 67 q 102 112 120 172 q 138 232 165 314 l 165 314 q 149 313 133 311 q 116 309 99 307 l 99 307 q 100 332 123 347 q 145 361 182 368 l 182 368 q 189 389 197 412 q 204 434 212 459 q 220 483 229 509 q 238 534 248 562 q 257 590 267 619 l 267 619 q 271 630 276 647 q 281 663 281 678 l 281 678 q 281 686 279 689 q 276 692 267 692 l 267 692 q 243 692 221 673 q 198 653 181 623 q 163 593 153 561 q 143 529 143 504 l 143 504 q 143 495 145 486 q 146 477 148 470 l 148 470 q 115 470 102 487 q 88 503 88 527 l 88 527 q 88 561 108 595 q 128 629 160 658 q 191 686 226 703 q 260 720 288 720 l 288 720 q 315 720 325 705 q 334 690 334 672 l 334 672 q 334 661 332 650 q 329 639 326 629 l 326 629 l 248 375 q 262 376 277 377 q 291 377 306 377 l 306 377 q 353 377 396 375 q 438 372 476 368 l 476 368 q 496 432 516 494 q 535 556 552 603 q 568 649 577 668 l 577 668 q 581 676 588 688 q 595 700 607 710 q 618 720 632 720 l 632 720 q 618 683 600 626 q 582 568 564 500 q 545 432 527 364 l 527 364 q 547 363 566 362 q 584 360 602 360 l 602 360 q 580 337 559 333 q 538 328 518 328 l 518 328 q 509 291 501 257 q 493 222 487 191 l 487 191 q 469 106 462 46 q 454 -14 454 -51 l 454 -51 q 454 -63 455 -71 q 455 -80 456 -87 l 456 -87 q 417 -83 402 -65 q 387 -47 387 -9 l 387 -9 q 387 17 393 57 q 399 96 411 142 l 411 142 q 419 172 433 222 q 447 271 464 327 l 464 327 q 403 327 362 326 q 321 325 291 324 q 261 323 231 320 l 231 320 q 213 262 195 205 q 177 148 162 101 q 147 53 137 20 q 127 -13 124 -23 l 124 -23 q 114 -57 93 -72 q 71 -87 55 -87 z"},"I":{"ha":459,"x_min":0,"x_max":459,"o":"m -38 -88 l -38 -88 q -34 -51 -11 -34 q 11 -18 47 -13 q 83 -8 125 -8 l 125 -8 q 143 31 161 88 q 179 144 196 209 q 212 274 228 342 q 244 409 258 471 q 272 533 285 583 q 297 632 307 661 l 307 661 q 255 660 219 658 q 182 656 151 652 q 119 648 82 641 l 82 641 q 89 679 137 699 q 185 718 286 718 l 286 718 q 336 718 388 714 q 439 710 482 706 q 525 701 548 697 l 548 697 q 524 673 498 668 q 471 662 451 662 l 451 662 q 420 662 393 662 q 365 662 342 661 l 342 661 q 338 640 330 596 q 322 551 311 494 q 300 436 288 375 q 276 313 265 258 q 253 202 243 162 l 243 162 q 227 98 207 54 q 187 10 159 -9 l 159 -9 q 211 -12 270 -19 q 329 -27 376 -28 l 376 -28 q 347 -57 316 -64 q 284 -71 263 -71 l 263 -71 q 223 -71 185 -71 q 146 -72 109 -73 q 71 -74 35 -77 q -2 -81 -38 -88 z"},"J":{"ha":411,"x_min":0,"x_max":411,"o":"m 77 -86 l 77 -86 q 54 -86 29 -77 q 3 -68 -14 -40 q -31 -12 -31 44 l -31 44 q -31 83 -22 122 q -13 160 5 186 q 22 212 45 212 l 45 212 q 57 212 73 204 l 73 204 q 55 158 46 118 q 37 78 37 44 l 37 44 q 37 -1 53 -26 q 69 -51 100 -51 l 100 -51 q 126 -51 147 -29 q 167 -7 189 54 l 189 54 q 205 98 223 161 q 240 223 258 295 q 275 366 291 437 q 307 507 320 567 q 333 627 340 667 l 340 667 q 291 667 258 665 q 224 663 197 659 q 170 655 138 647 l 138 647 q 143 681 182 700 q 220 718 301 718 l 301 718 q 341 718 382 714 q 423 710 458 706 q 492 701 510 697 l 510 697 q 499 678 474 673 q 449 668 433 668 l 433 668 q 413 668 396 668 q 378 667 362 667 l 362 667 q 373 659 378 645 q 383 631 383 620 l 383 620 q 383 607 376 563 q 369 518 356 455 q 343 392 325 321 q 307 250 286 182 q 265 114 241 61 l 241 61 q 215 1 189 -30 q 162 -62 135 -74 q 107 -86 77 -86 z"},"K":{"ha":590,"x_min":0,"x_max":590,"o":"m 495 -87 l 495 -87 q 473 -87 444 -61 q 415 -35 383 8 q 350 51 319 102 q 287 152 261 202 q 234 252 216 291 l 216 291 l 119 -23 q 112 -46 97 -55 q 82 -65 65 -67 q 47 -69 30 -69 l 30 -69 q 43 -41 57 -5 q 70 31 89 82 q 107 133 132 206 q 157 279 192 381 q 226 482 273 619 l 273 619 q 276 627 281 642 q 286 656 286 668 l 286 668 q 286 679 281 686 q 276 692 262 692 l 262 692 q 238 692 216 673 q 193 653 176 623 q 158 593 148 561 q 138 529 138 504 l 138 504 q 138 485 143 470 l 143 470 q 110 470 97 487 q 83 503 83 527 l 83 527 q 83 561 103 595 q 123 629 155 658 q 186 686 221 703 q 255 720 283 720 l 283 720 q 310 720 320 705 q 329 690 329 672 l 329 672 q 329 661 327 650 q 324 639 321 629 l 321 629 l 237 357 q 251 377 274 394 q 296 411 323 433 l 323 433 q 368 469 420 517 q 471 565 518 618 q 565 671 596 720 l 596 720 q 601 714 603 699 q 605 684 605 676 l 605 676 q 605 645 580 608 q 554 571 513 532 q 472 492 423 454 q 374 415 327 381 q 279 347 241 322 l 241 322 q 271 271 300 225 q 328 179 362 135 q 395 91 440 45 q 485 -1 549 -54 l 549 -54 q 542 -67 527 -77 q 512 -87 495 -87 z"},"L":{"ha":570,"x_min":0,"x_max":570,"o":"m 397 -87 l 397 -87 q 361 -87 318 -72 q 274 -57 228 -35 q 182 -14 137 6 l 137 6 q 112 -22 85 -37 q 58 -53 26 -53 l 26 -53 q -6 -53 -28 -38 q -51 -23 -62 -2 q -74 18 -74 34 l -74 34 q -74 52 -57 65 q -41 78 -1 78 l -1 78 q 25 78 57 72 q 88 66 122 57 l 122 57 q 146 99 167 155 q 187 211 207 274 q 227 337 247 400 l 247 400 q 201 415 175 444 q 148 473 148 507 l 148 507 q 148 525 156 543 q 163 561 177 574 q 191 586 210 586 l 210 586 q 203 576 200 557 q 197 538 197 524 l 197 524 q 197 486 213 461 q 229 435 254 421 l 254 421 q 274 481 296 535 q 317 588 343 630 q 369 672 400 696 q 431 720 469 720 l 469 720 q 489 720 512 711 q 534 702 550 680 q 566 658 566 618 l 566 618 q 566 584 552 545 q 538 505 509 470 q 480 434 435 412 q 390 389 329 388 l 329 388 q 328 388 325 388 q 321 388 310 388 l 310 388 q 290 327 268 264 q 245 201 220 145 q 195 88 166 44 l 166 44 q 212 30 259 16 q 306 1 350 -8 q 394 -18 431 -18 l 431 -18 q 452 -18 469 -14 q 486 -10 502 -2 l 502 -2 q 486 -48 460 -67 q 433 -87 397 -87 z m 22 -24 l 22 -24 q 44 -24 64 -12 q 83 0 99 22 l 99 22 q 68 35 39 44 q 9 52 -15 52 l -15 52 q -34 52 -41 47 q -48 42 -48 33 l -48 33 q -48 16 -28 -4 q -9 -24 22 -24 z m 316 407 l 316 407 q 361 407 398 433 q 434 458 460 497 q 485 535 499 575 q 512 615 512 645 l 512 645 q 512 674 501 685 q 490 695 476 695 l 476 695 q 445 695 418 655 q 391 615 367 550 q 342 484 316 407 z"},"M":{"ha":763,"x_min":0,"x_max":763,"o":"m -17 -87 l -17 -87 q -11 -73 16 -13 q 43 46 87 142 q 130 237 185 359 q 239 480 300 616 l 300 616 q 303 623 307 635 q 310 646 310 657 l 310 657 q 310 668 304 676 q 297 683 276 683 l 276 683 q 234 683 207 655 q 179 626 166 584 q 152 542 152 501 l 152 501 q 152 491 153 484 q 153 477 154 470 l 154 470 q 135 470 124 484 q 112 497 107 517 q 101 536 101 552 l 101 552 q 101 585 119 615 q 137 645 166 669 q 194 693 229 707 q 263 720 296 720 l 296 720 q 329 720 352 702 q 374 683 386 635 q 397 587 397 496 l 397 496 q 397 434 393 364 q 388 294 383 226 q 378 158 376 102 l 376 102 q 392 163 422 232 q 451 301 487 370 q 522 438 557 498 q 592 558 620 602 q 648 646 661 666 l 661 666 q 675 686 685 697 q 695 707 711 707 l 711 707 q 725 707 743 700 l 743 700 q 736 682 724 647 q 711 611 698 560 l 698 560 q 682 499 666 422 q 650 344 637 264 q 623 184 615 114 q 607 43 607 -5 l 607 -5 q 607 -27 609 -39 q 611 -51 615 -60 q 618 -70 622 -87 l 622 -87 q 588 -87 570 -76 q 552 -65 546 -40 q 540 -16 540 25 l 540 25 q 540 144 571 281 q 601 417 640 564 l 640 564 q 611 527 580 471 q 548 414 517 349 q 485 283 457 218 q 428 152 406 96 q 384 40 372 3 l 372 3 q 366 1 364 0 q 362 -1 357 -1 l 357 -1 q 330 -1 322 31 q 313 63 313 121 l 313 121 q 313 162 316 219 q 318 275 321 335 q 324 395 327 451 q 329 506 329 546 l 329 546 q 329 566 329 579 q 328 592 327 602 l 327 602 q 247 416 193 285 q 139 153 103 71 q 66 -11 38 -49 q 10 -87 -17 -87 z"},"N":{"ha":640,"x_min":0,"x_max":640,"o":"m 46 -87 l 46 -87 q 58 -39 76 20 q 94 79 120 161 q 145 242 179 354 q 213 466 258 619 l 258 619 q 260 624 263 637 q 265 649 265 660 l 265 660 q 265 670 262 677 q 258 683 250 683 l 250 683 q 226 683 205 665 q 183 646 168 618 q 152 590 143 560 q 134 529 134 505 l 134 505 q 134 485 139 470 l 139 470 q 106 470 93 487 q 79 503 79 527 l 79 527 q 79 561 99 595 q 119 629 150 658 q 181 686 216 703 q 250 720 279 720 l 279 720 q 309 720 329 695 q 348 669 360 625 q 372 580 380 524 q 388 468 395 408 l 395 408 q 401 358 407 309 q 413 259 419 215 q 425 170 430 133 q 435 96 439 72 l 439 72 q 446 119 460 179 q 473 238 490 303 q 506 367 524 429 q 542 490 558 542 q 573 593 585 628 q 596 662 600 671 l 600 671 q 605 684 623 702 q 641 720 663 720 l 663 720 q 646 674 625 608 q 603 541 581 464 q 559 386 538 306 q 517 225 501 150 q 484 75 475 14 q 465 -48 464 -87 l 464 -87 q 433 -87 414 -69 q 394 -51 386 -6 l 386 -6 q 381 20 374 66 q 366 111 358 167 q 349 223 340 284 q 331 344 323 402 q 314 460 307 509 q 300 557 295 589 l 295 589 q 247 416 213 297 q 179 177 156 102 q 132 26 114 -15 q 96 -56 80 -71 q 64 -87 46 -87 z"},"O":{"ha":623,"x_min":0,"x_max":623,"o":"m 213 -87 l 213 -87 q 156 -87 113 -56 q 70 -26 46 30 q 21 86 21 161 l 21 161 q 21 238 46 317 q 70 396 112 468 q 154 540 207 597 q 260 653 319 686 q 378 719 435 719 l 435 719 q 454 719 469 716 q 484 713 495 707 l 495 707 q 487 707 486 707 q 484 707 483 707 l 483 707 q 431 707 378 673 q 325 638 277 580 q 229 521 191 449 q 153 376 131 298 q 109 220 109 147 l 109 147 q 109 94 123 48 q 136 2 166 -25 q 196 -53 243 -53 l 243 -53 q 299 -53 348 -18 q 397 16 437 75 q 476 134 505 207 q 533 279 549 357 q 564 434 564 505 l 564 505 q 564 533 560 565 q 556 597 546 620 q 536 643 519 643 l 519 643 q 501 643 480 621 q 459 598 440 564 q 420 530 405 494 q 390 457 384 429 l 384 429 q 359 435 348 449 q 336 462 336 478 l 336 478 q 336 505 355 538 q 373 570 402 601 q 430 631 461 651 q 492 670 517 670 l 517 670 q 543 670 560 651 q 576 632 586 603 q 595 573 599 540 q 602 506 602 477 l 602 477 q 602 368 578 279 q 553 189 512 121 q 470 53 419 7 q 368 -40 315 -63 q 261 -87 213 -87 z"},"P":{"ha":527,"x_min":0,"x_max":527,"o":"m 87 -87 l 87 -87 q 62 -87 40 -73 q 18 -59 18 -37 l 18 -37 q 18 -26 23 -10 q 28 5 32 18 l 32 18 q 64 116 92 201 q 120 286 148 366 q 176 446 208 526 q 239 606 278 693 l 278 693 q 240 686 211 673 q 181 659 163 649 q 145 638 139 638 l 139 638 q 135 638 128 643 q 120 647 114 654 q 108 660 108 665 l 108 665 q 134 676 170 689 q 205 702 246 711 q 287 720 329 720 l 329 720 q 373 720 419 708 q 464 696 502 672 q 540 647 563 611 q 586 575 586 527 l 586 527 q 586 475 563 438 q 540 400 502 375 q 464 349 420 334 q 376 318 333 310 q 289 301 255 299 q 221 296 205 296 l 205 296 l 195 296 q 165 193 138 93 q 110 -7 87 -87 z m 199 312 l 199 312 q 254 315 311 330 q 367 345 414 374 q 461 402 490 445 q 519 487 519 544 l 519 544 q 519 598 494 632 q 468 666 427 683 q 385 699 338 699 l 338 699 q 301 626 266 524 q 231 422 199 312 z"},"Q":{"ha":693,"x_min":0,"x_max":693,"o":"m 516 -119 l 516 -119 q 470 -119 431 -93 q 392 -68 356 -37 l 356 -37 q 332 -49 307 -56 q 282 -63 256 -63 l 256 -63 q 222 -63 200 -52 q 178 -42 167 -27 q 155 -12 151 3 q 146 17 146 25 l 146 25 q 146 42 163 60 q 179 77 219 77 l 219 77 q 260 77 299 58 q 338 38 378 13 l 378 13 q 423 53 458 115 q 492 177 516 248 q 539 319 552 388 q 564 456 564 509 l 564 509 q 564 591 533 642 q 502 693 432 693 l 432 693 q 374 693 324 659 q 274 624 234 566 q 193 508 164 437 q 135 365 120 289 q 104 213 104 144 l 104 144 q 104 123 106 102 q 108 81 112 60 l 112 60 q 81 60 65 80 q 48 100 42 132 q 35 163 35 199 l 35 199 q 35 274 55 349 q 75 423 112 490 q 148 557 198 609 q 247 660 307 690 q 366 720 431 720 l 431 720 q 527 720 581 655 q 634 589 634 477 l 634 477 q 634 414 617 346 q 600 277 570 212 q 539 146 498 90 q 457 34 408 -4 l 408 -4 q 442 -23 479 -36 q 515 -50 556 -50 l 556 -50 q 578 -50 589 -46 q 599 -42 614 -38 l 614 -38 q 604 -73 587 -90 q 569 -108 551 -113 q 532 -119 516 -119 z m 256 -38 l 256 -38 q 277 -38 297 -32 q 316 -27 334 -17 l 334 -17 q 303 10 273 31 q 242 51 209 51 l 209 51 q 186 51 179 42 q 172 32 172 24 l 172 24 q 172 15 179 1 q 186 -14 204 -26 q 222 -38 256 -38 z"},"R":{"ha":577,"x_min":0,"x_max":577,"o":"m 464 -121 l 464 -121 q 442 -121 413 -93 q 383 -66 351 -21 q 319 23 288 76 q 256 129 230 182 q 203 235 185 277 l 185 277 q 157 179 131 85 q 105 -10 82 -87 l 82 -87 q 57 -87 37 -73 q 16 -59 16 -37 l 16 -37 q 16 -26 21 -10 q 26 5 30 18 l 30 18 q 55 97 79 167 q 103 237 126 302 q 149 367 174 431 q 198 495 225 560 q 252 625 283 695 l 283 695 q 241 688 210 675 q 179 661 160 650 q 141 638 134 638 l 134 638 q 130 638 123 643 q 115 647 109 654 q 103 660 103 665 l 103 665 q 129 676 164 689 q 199 702 241 711 q 283 720 328 720 l 328 720 q 371 720 416 710 q 460 699 498 677 q 535 654 558 619 q 581 583 581 533 l 581 533 q 581 484 559 449 q 536 413 500 389 q 463 365 420 351 q 377 336 335 329 q 293 321 259 319 q 225 316 208 316 l 208 316 q 239 263 267 213 q 295 163 328 114 q 361 64 406 14 q 451 -36 515 -88 l 515 -88 q 509 -101 494 -111 q 478 -121 464 -121 z m 201 332 l 201 332 q 255 335 311 350 q 366 364 412 391 q 458 417 486 458 q 514 498 514 554 l 514 554 q 514 609 488 641 q 462 672 421 686 q 380 699 335 699 l 335 699 q 301 630 267 534 q 233 437 201 332 z"},"S":{"ha":536,"x_min":0,"x_max":536,"o":"m 203 -87 l 203 -87 q 149 -87 101 -67 q 53 -48 24 -8 q -6 32 -6 92 l -6 92 q -6 144 15 173 q 35 202 65 214 q 95 226 122 226 l 122 226 q 95 197 81 162 q 67 127 67 92 l 67 92 q 67 55 84 23 q 100 -9 134 -28 q 168 -48 220 -48 l 220 -48 q 265 -48 308 -31 q 351 -15 379 18 q 406 50 406 98 l 406 98 q 406 141 384 172 q 362 203 328 227 q 293 251 254 273 q 215 295 181 320 q 146 344 124 376 q 102 408 102 453 l 102 453 q 102 495 122 541 q 142 587 180 628 q 217 669 270 695 q 322 720 387 720 l 387 720 q 446 720 469 692 q 492 663 492 620 l 492 620 q 492 584 480 543 q 467 501 449 464 q 431 426 415 400 l 415 400 q 397 404 390 416 q 382 427 382 443 l 382 443 q 382 464 391 491 q 400 518 412 547 q 423 576 432 604 q 441 631 441 653 l 441 653 q 441 673 429 685 q 417 696 385 696 l 385 696 q 338 696 298 674 q 258 652 228 618 q 198 583 182 545 q 165 507 165 476 l 165 476 q 165 439 187 413 q 208 386 242 365 q 276 343 315 322 q 353 300 387 274 q 421 248 443 213 q 464 177 464 126 l 464 126 q 464 74 441 35 q 418 -5 380 -32 q 341 -59 295 -73 q 249 -87 203 -87 z"},"T":{"ha":490,"x_min":0,"x_max":490,"o":"m 187 -87 l 187 -87 q 142 -87 125 -67 q 108 -47 108 -16 l 108 -16 q 108 13 120 53 q 132 93 145 130 l 145 130 q 162 179 186 245 q 210 311 238 383 q 265 455 294 525 q 322 595 349 652 l 349 652 q 280 651 234 649 q 187 647 150 644 q 113 640 69 632 l 69 632 q 72 666 104 685 q 136 704 190 712 q 244 720 313 720 l 313 720 q 382 720 437 715 q 491 709 539 704 q 587 699 635 698 l 635 698 q 601 667 557 659 q 513 651 464 651 l 464 651 q 453 651 441 652 q 429 652 417 652 q 405 652 393 652 l 393 652 q 361 572 320 450 q 278 328 236 175 l 236 175 q 222 122 211 80 q 199 38 193 3 q 186 -32 186 -65 l 186 -65 q 186 -70 186 -76 q 186 -82 187 -87 z"},"U":{"ha":706,"x_min":0,"x_max":706,"o":"m 541 -99 l 541 -99 q 504 -99 482 -67 q 460 -36 460 7 l 460 7 q 460 21 463 45 q 465 68 469 98 l 469 98 q 432 16 379 -35 q 326 -87 253 -87 l 253 -87 q 189 -87 156 -48 q 123 -9 123 49 l 123 49 q 123 88 136 142 q 148 195 167 257 q 186 318 205 381 q 223 444 236 502 q 248 559 248 604 l 248 604 q 248 692 192 692 l 192 692 q 165 692 145 675 q 125 657 112 630 q 99 603 93 573 q 86 543 86 519 l 86 519 q 86 505 88 492 q 90 479 94 470 l 94 470 q 56 470 41 491 q 25 511 25 539 l 25 539 q 25 570 40 602 q 55 634 82 661 q 108 687 143 704 q 177 720 216 720 l 216 720 q 271 720 295 687 q 319 654 319 599 l 319 599 q 319 562 310 518 q 301 473 287 425 q 273 376 257 327 l 257 327 q 234 254 215 186 q 196 117 196 65 l 196 65 q 196 19 216 -14 q 235 -47 280 -47 l 280 -47 q 321 -47 355 -20 q 389 6 415 48 q 441 90 459 137 q 477 184 487 224 l 487 224 q 501 284 518 352 q 535 419 554 485 q 572 550 591 603 q 609 656 627 688 q 645 720 661 720 l 661 720 q 669 720 683 712 q 697 703 711 688 l 711 688 q 703 682 686 646 q 669 609 648 552 q 627 495 606 427 q 585 358 567 288 q 549 217 538 153 q 527 89 527 42 l 527 42 q 527 -27 546 -51 q 564 -75 607 -75 l 607 -75 q 588 -88 572 -93 q 555 -99 541 -99 z"},"V":{"ha":632,"x_min":0,"x_max":632,"o":"m 210 -87 l 210 -87 q 196 -87 176 -80 q 155 -74 140 -57 q 124 -40 124 -7 l 124 -7 q 124 22 137 69 q 149 116 168 175 q 187 233 206 298 q 225 362 238 427 q 250 492 250 552 l 250 552 q 250 589 248 621 q 245 653 233 673 q 220 692 190 692 l 190 692 q 162 692 143 676 q 123 659 111 633 q 98 607 93 578 q 87 549 87 524 l 87 524 q 87 508 90 495 q 92 481 96 470 l 96 470 q 57 470 41 492 q 25 513 25 542 l 25 542 q 25 573 40 604 q 54 635 80 662 q 105 688 138 704 q 171 720 208 720 l 208 720 q 270 720 301 672 q 331 623 331 542 l 331 542 q 331 484 318 421 q 305 357 286 294 q 267 231 248 173 q 228 115 215 66 q 202 17 202 -17 l 202 -17 q 202 -34 208 -45 q 213 -56 230 -56 l 230 -56 q 258 -56 295 -27 q 332 1 372 51 q 411 100 449 162 q 486 224 516 292 q 546 359 564 424 q 582 489 582 544 l 582 544 q 582 594 567 618 q 552 641 527 648 l 527 648 q 541 672 557 683 q 572 694 585 694 l 585 694 q 606 694 626 667 q 646 640 646 583 l 646 583 q 646 528 626 458 q 605 388 570 313 q 535 237 490 166 q 445 95 396 38 q 347 -19 299 -53 q 251 -87 210 -87 z"},"W":{"ha":906,"x_min":0,"x_max":906,"o":"m 210 -87 l 210 -87 q 199 -87 185 -83 q 170 -80 156 -71 q 142 -63 133 -47 q 124 -32 124 -7 l 124 -7 q 124 28 141 86 q 158 143 180 213 l 180 213 q 197 267 213 325 q 229 383 240 441 q 250 499 250 552 l 250 552 q 250 589 248 621 q 245 653 233 673 q 220 692 190 692 l 190 692 q 162 692 143 676 q 123 659 111 633 q 98 607 93 578 q 87 549 87 524 l 87 524 q 87 491 96 470 l 96 470 q 57 470 41 492 q 25 513 25 542 l 25 542 q 25 573 40 604 q 54 635 80 662 q 105 688 138 704 q 171 720 208 720 l 208 720 q 270 720 301 672 q 331 623 331 542 l 331 542 q 331 469 311 388 q 290 306 265 229 l 265 229 q 249 179 235 134 q 220 88 211 50 q 202 12 202 -17 l 202 -17 q 202 -36 208 -46 q 214 -56 232 -56 l 232 -56 q 257 -56 288 -32 q 318 -9 350 31 q 381 71 411 120 q 440 168 465 219 q 489 270 506 316 q 522 362 526 395 l 526 395 q 559 395 573 378 q 586 361 586 346 l 586 346 q 586 330 573 297 q 560 264 542 223 l 542 223 q 527 187 512 146 q 496 105 486 64 q 475 23 475 -14 l 475 -14 q 475 -33 480 -44 q 485 -56 503 -56 l 503 -56 q 531 -56 568 -27 q 605 1 645 51 q 684 100 722 162 q 759 224 789 292 q 819 359 837 424 q 855 489 855 544 l 855 544 q 855 594 840 618 q 825 641 800 648 l 800 648 q 814 672 830 683 q 845 694 858 694 l 858 694 q 879 694 899 667 q 919 640 919 583 l 919 583 q 919 528 899 458 q 878 388 843 313 q 808 237 763 166 q 718 95 669 38 q 620 -19 572 -53 q 524 -87 483 -87 l 483 -87 q 464 -87 444 -79 q 424 -71 411 -54 q 397 -38 397 -12 l 397 -12 q 397 3 403 27 q 408 50 417 78 l 417 78 q 366 6 313 -40 q 259 -87 210 -87 z"},"X":{"ha":662,"x_min":0,"x_max":662,"o":"m 25 -112 l 25 -112 q 28 -90 34 -76 q 39 -62 49 -49 q 59 -37 74 -21 l 74 -21 q 106 14 136 48 q 166 82 195 116 q 223 149 250 182 q 276 214 301 246 l 301 246 q 299 279 298 303 q 296 326 295 348 q 293 370 293 398 q 292 426 291 468 l 291 468 q 290 545 287 595 q 284 644 272 668 q 260 692 232 692 l 232 692 q 207 692 188 675 q 168 658 155 632 q 142 605 135 575 q 128 545 128 519 l 128 519 q 128 489 136 470 l 136 470 q 98 470 83 491 q 67 511 67 539 l 67 539 q 67 570 82 602 q 97 634 124 661 q 150 687 184 704 q 218 720 255 720 l 255 720 q 294 720 318 701 q 341 681 353 646 q 365 611 369 564 q 373 517 374 461 q 374 405 375 344 l 375 344 q 455 455 511 551 q 567 647 597 722 l 597 722 q 605 717 613 703 q 620 688 620 674 l 620 674 q 620 654 601 615 q 581 576 547 524 q 513 471 469 411 q 425 351 376 289 l 376 289 q 378 225 384 165 q 389 104 400 56 q 410 7 428 -21 q 445 -50 470 -50 l 470 -50 q 500 -50 543 8 q 586 66 640 162 l 640 162 l 652 152 q 614 75 582 22 q 549 -32 516 -59 q 483 -87 443 -87 l 443 -87 q 401 -87 375 -60 q 349 -33 335 10 q 320 53 314 103 q 307 153 304 198 l 304 198 q 245 125 190 62 q 134 -2 91 -48 q 47 -94 25 -112 z"},"Y":{"ha":666,"x_min":0,"x_max":666,"o":"m 255 -187 l 255 -187 q 198 -187 158 -163 q 117 -139 117 -93 l 117 -93 q 117 -67 132 -47 q 146 -28 177 -18 l 177 -18 q 173 -33 171 -47 q 169 -61 169 -72 l 169 -72 q 169 -113 191 -137 q 213 -162 256 -162 l 256 -162 q 296 -162 328 -142 q 359 -122 382 -89 q 405 -57 421 -19 q 437 19 448 56 q 459 93 465 121 l 465 121 q 473 155 484 210 q 494 264 507 326 l 507 326 q 467 250 415 201 q 362 151 290 151 l 290 151 q 231 151 206 185 q 181 218 181 270 l 181 270 q 181 309 192 355 q 202 401 215 448 q 228 494 239 537 q 249 580 249 614 l 249 614 q 249 646 237 669 q 224 692 192 692 l 192 692 q 164 692 144 675 q 124 657 111 630 q 97 603 91 574 q 84 544 84 519 l 84 519 q 84 505 86 492 q 88 479 92 470 l 92 470 q 54 470 39 491 q 23 511 23 539 l 23 539 q 23 570 38 602 q 53 634 80 661 q 106 687 141 704 q 175 720 214 720 l 214 720 q 252 720 275 705 q 298 689 308 666 q 318 643 318 619 l 318 619 q 318 591 308 550 q 297 508 284 462 l 284 462 q 271 417 261 372 q 251 327 251 287 l 251 287 q 251 244 268 218 q 284 191 321 191 l 321 191 q 356 191 387 213 q 418 235 445 272 q 472 309 494 353 q 516 397 533 440 l 533 440 q 546 494 561 545 q 575 595 590 635 q 605 674 621 697 q 637 720 653 720 l 653 720 q 663 720 679 712 q 695 703 709 688 l 709 688 q 688 655 673 626 q 658 596 645 561 q 631 526 617 479 q 603 431 586 362 q 568 293 544 194 l 544 194 q 531 143 516 89 q 501 35 480 -14 q 458 -63 428 -102 q 398 -141 356 -164 q 313 -187 255 -187 z"},"Z":{"ha":631,"x_min":0,"x_max":631,"o":"m 447 -87 l 447 -87 q 412 -87 370 -73 q 328 -59 284 -38 q 239 -18 195 2 l 195 2 q 161 -24 129 -39 q 97 -54 67 -54 l 67 -54 q 38 -54 18 -41 q -3 -29 -14 -10 q -25 8 -25 26 l -25 26 q -25 47 -7 63 q 10 78 52 78 l 52 78 q 81 78 116 71 q 150 63 188 52 l 188 52 q 236 102 287 174 q 337 245 383 321 l 383 321 q 346 320 319 318 q 291 315 253 310 l 253 310 l 219 305 q 221 333 241 348 q 261 363 295 369 q 328 375 368 375 l 368 375 q 379 375 391 375 q 402 374 413 373 l 413 373 q 452 442 483 505 q 514 567 530 610 l 530 610 q 514 614 494 622 q 474 629 452 637 l 452 637 q 404 656 351 674 q 297 692 252 692 l 252 692 q 220 692 195 679 q 169 666 154 635 q 139 603 139 548 l 139 548 q 139 540 140 534 q 140 528 141 523 q 142 518 143 513 l 143 513 q 114 518 102 537 q 89 555 89 585 l 89 585 q 89 652 141 686 q 193 720 282 720 l 282 720 q 335 720 381 711 q 426 701 468 688 q 510 675 550 666 q 589 656 628 656 l 628 656 q 638 656 646 657 q 653 657 660 658 l 660 658 q 646 646 634 638 q 621 629 610 623 l 610 623 q 588 571 555 505 q 521 438 480 367 l 480 367 q 510 364 537 361 q 563 358 586 358 l 586 358 q 575 342 562 335 q 548 328 524 326 q 499 324 454 323 l 454 323 q 405 242 349 167 q 292 92 236 38 l 236 38 q 301 18 366 0 q 430 -18 481 -18 l 481 -18 q 502 -18 519 -14 q 536 -10 552 -2 l 552 -2 q 536 -48 510 -67 q 483 -87 447 -87 z m 62 -27 l 62 -27 q 82 -27 106 -14 q 129 -2 154 20 l 154 20 q 121 34 91 43 q 61 52 38 52 l 38 52 q 16 52 9 45 q 1 38 1 28 l 1 28 q 1 12 18 -7 q 34 -27 62 -27 z"},"[":{"ha":393,"x_min":0,"x_max":393,"o":"m 196 -87 l 196 -87 q 165 -87 132 -83 q 98 -80 71 -75 q 44 -70 29 -67 l 29 -67 q 31 -63 34 -57 q 36 -51 40 -34 q 44 -17 51 19 q 58 54 70 115 q 81 175 99 269 q 116 363 141 498 l 141 498 q 157 583 180 627 q 202 671 226 687 q 250 703 271 703 l 271 703 q 284 703 303 702 q 322 700 343 700 l 343 700 q 369 700 396 704 q 422 708 443 720 l 443 720 q 441 684 426 667 q 411 650 388 645 q 365 640 338 640 l 338 640 q 312 640 285 647 q 258 653 231 657 l 231 657 q 217 615 203 556 q 188 497 175 429 q 161 361 149 292 q 136 223 125 160 q 114 96 104 47 q 94 -3 86 -32 l 86 -32 q 140 -32 176 -31 q 211 -30 236 -28 q 261 -26 282 -22 q 302 -18 326 -11 l 326 -11 q 322 -49 292 -68 q 261 -87 196 -87 z"},"\\":{"ha":560,"x_min":0,"x_max":560,"o":"m 435 -162 l 435 -162 q 392 -154 363 -112 q 334 -71 308 22 l 308 22 q 299 57 286 117 q 273 177 259 251 q 244 325 230 402 q 216 478 203 545 q 190 612 180 659 q 170 706 164 720 l 164 720 q 188 720 204 705 q 220 689 225 675 l 225 675 q 240 636 256 574 q 272 511 289 435 q 305 359 321 279 q 337 199 353 124 q 368 48 383 -14 q 397 -76 411 -115 q 424 -155 435 -162 z"},"]":{"ha":410,"x_min":0,"x_max":410,"o":"m -14 -88 l -14 -88 q -12 -61 3 -46 q 18 -31 41 -24 q 64 -18 91 -18 l 91 -18 q 117 -18 151 -21 q 184 -24 215 -26 l 215 -26 q 232 22 249 95 q 266 167 283 250 q 300 333 315 415 q 330 496 344 564 q 357 632 367 674 l 367 674 l 304 674 q 255 674 205 671 q 155 667 105 653 l 105 653 q 105 696 140 708 q 174 720 234 720 l 234 720 q 271 720 314 715 q 357 709 401 699 l 401 699 q 399 685 393 648 q 387 610 379 558 q 370 505 361 446 q 351 386 341 327 q 331 268 322 218 q 313 167 306 132 l 306 132 q 302 109 294 75 q 285 41 271 8 q 257 -26 235 -48 q 212 -71 178 -71 l 178 -71 q 126 -71 75 -73 q 23 -76 -14 -88 z"},"^":{"ha":203,"x_min":0,"x_max":203,"o":"m 187 406 l 187 406 q 173 435 155 456 q 137 476 113 498 l 113 498 q 82 487 58 474 q 33 461 10 441 l 10 441 q 4 445 2 451 q 0 456 0 460 l 0 460 q 0 475 14 490 q 27 505 47 519 q 66 532 85 540 q 104 548 114 548 l 114 548 q 126 548 142 537 q 157 526 171 509 q 185 491 195 472 q 204 453 204 437 l 204 437 q 204 427 200 419 q 196 411 187 406 z"},"_":{"ha":845,"x_min":0,"x_max":845,"o":"m -20 -66 l -20 -66 q -16 -32 30 -14 q 76 3 155 10 q 233 16 332 16 l 332 16 q 406 16 457 14 q 507 11 546 8 q 585 4 625 1 q 664 -2 716 -2 l 716 -2 q 675 -30 630 -38 q 585 -47 553 -47 l 553 -47 q 455 -47 386 -47 q 317 -48 269 -48 q 220 -48 184 -49 l 184 -49 q 156 -50 133 -51 q 109 -52 86 -54 q 63 -56 38 -59 q 12 -62 -20 -66 z"},"`":{"ha":125,"x_min":0,"x_max":125,"o":"m 112 404 l 112 404 q 90 433 63 461 q 36 489 0 520 l 0 520 q 2 538 8 545 q 14 551 22 551 l 22 551 q 37 551 55 536 q 73 521 89 500 q 105 478 116 459 q 126 439 126 430 l 126 430 q 126 426 123 417 q 120 408 112 404 z"},"a":{"ha":436,"x_min":0,"x_max":436,"o":"m 48 -47 l 48 -47 q 17 -47 -4 -26 q -26 -6 -26 36 l -26 36 q -26 72 -10 114 q 6 155 34 196 q 62 236 98 270 q 133 303 173 323 q 212 343 251 343 l 251 343 q 290 343 316 323 q 342 302 342 268 l 342 268 q 342 243 329 234 q 315 225 293 225 l 293 225 q 295 233 297 243 q 298 252 298 260 l 298 260 q 298 283 287 300 q 276 316 249 316 l 249 316 q 221 316 192 297 q 163 277 136 245 q 109 212 88 174 q 67 136 55 99 q 43 62 43 33 l 43 33 q 43 -6 70 -6 l 70 -6 q 93 -6 120 16 q 147 37 176 71 q 204 104 230 140 q 256 176 276 206 l 276 206 q 280 212 281 212 l 281 212 q 287 211 297 208 q 306 205 313 200 q 320 195 320 187 l 320 187 q 320 178 311 163 q 302 147 291 127 q 280 107 271 87 q 262 66 262 48 l 262 48 q 262 33 270 19 q 278 4 296 4 l 296 4 q 323 4 367 44 q 411 83 456 162 l 456 162 l 466 152 q 445 98 412 57 q 379 16 342 -7 q 304 -30 268 -30 l 268 -30 q 231 -30 214 -8 q 196 14 196 40 l 196 40 q 196 46 197 54 q 198 61 199 69 l 199 69 q 156 11 121 -18 q 85 -47 48 -47 z"},"b":{"ha":394,"x_min":0,"x_max":394,"o":"m 93 -73 l 93 -73 q 41 -73 16 -39 q -10 -5 -10 53 l -10 53 q -10 103 7 171 q 24 239 52 314 q 80 388 115 459 q 149 530 184 588 q 219 645 250 680 q 281 714 301 714 l 301 714 q 318 714 326 693 q 333 672 333 651 l 333 651 q 333 623 321 583 q 309 543 287 498 q 265 452 236 408 q 207 364 174 328 q 140 291 105 270 l 105 270 q 99 259 88 225 q 76 190 67 146 q 57 101 57 59 l 57 59 q 57 18 70 -8 q 82 -35 112 -35 l 112 -35 q 141 -35 172 -11 q 203 12 222 49 l 222 49 q 185 68 167 105 q 149 141 149 178 l 149 178 q 149 226 174 255 q 199 284 233 284 l 233 284 q 262 284 279 261 q 296 237 296 192 l 296 192 q 296 159 287 124 q 278 89 261 56 l 261 56 q 267 55 274 54 q 280 53 287 53 l 287 53 q 323 53 347 71 q 371 88 388 114 q 404 139 415 162 l 415 162 l 427 149 q 399 80 361 58 q 322 35 284 35 l 284 35 q 276 35 268 36 q 260 37 252 38 l 252 38 q 225 -8 186 -40 q 146 -73 93 -73 z m 232 69 l 232 69 q 243 92 249 118 q 255 143 255 170 l 255 170 q 255 205 246 225 q 236 245 222 245 l 222 245 q 207 245 196 225 q 184 204 184 173 l 184 173 q 184 146 195 116 q 206 86 232 69 z m 116 309 l 116 309 q 144 331 171 365 q 197 399 220 438 q 243 476 261 513 q 279 550 289 580 q 299 610 299 625 l 299 625 q 299 630 298 632 q 297 633 295 633 l 295 633 q 287 633 265 605 q 242 576 215 529 q 187 481 160 424 q 133 366 116 309 z"},"c":{"ha":323,"x_min":0,"x_max":323,"o":"m 107 -56 l 107 -56 q 59 -56 27 -24 q -5 8 -5 72 l -5 72 q -5 122 15 170 q 34 217 66 255 q 98 293 137 316 q 176 338 214 338 l 214 338 q 255 338 270 314 q 285 290 285 264 l 285 264 q 285 235 272 213 q 258 191 235 191 l 235 191 q 218 191 206 206 l 206 206 q 221 214 232 239 q 243 263 243 285 l 243 285 q 243 297 239 304 q 234 310 221 310 l 221 310 q 194 310 166 286 q 137 262 113 224 q 88 186 73 144 q 57 102 57 65 l 57 65 q 57 34 72 8 q 87 -18 130 -18 l 130 -18 q 170 -18 211 4 q 251 26 286 67 q 321 108 342 163 l 342 163 l 355 153 q 332 93 292 46 q 252 -2 204 -29 q 156 -56 107 -56 z"},"d":{"ha":473,"x_min":0,"x_max":473,"o":"m 59 -30 l 59 -30 q 42 -30 25 -21 q 7 -13 -4 6 q -16 25 -16 54 l -16 54 q -16 87 0 128 q 16 169 43 210 q 70 250 105 285 q 140 319 178 340 q 216 360 253 360 l 253 360 q 274 360 286 353 q 297 345 297 329 l 297 329 q 297 325 297 322 q 296 319 295 315 l 295 315 q 290 323 281 327 q 271 330 257 330 l 257 330 q 225 330 195 311 q 164 291 139 260 q 113 228 94 192 q 75 156 65 123 q 54 89 54 66 l 54 66 q 54 44 64 31 q 74 18 90 18 l 90 18 q 117 18 156 52 q 194 86 234 148 q 274 210 306 293 l 306 293 q 328 351 352 411 q 375 471 399 527 q 423 582 446 626 q 468 669 489 695 q 509 720 525 720 l 525 720 q 533 720 539 714 q 545 707 545 697 l 545 697 q 545 681 529 643 q 512 604 486 551 q 459 497 430 434 q 401 371 375 306 q 348 241 332 181 q 315 120 315 70 l 315 70 q 315 42 318 28 q 321 14 338 14 l 338 14 q 359 14 387 32 q 415 50 443 83 q 471 116 492 162 l 492 162 l 504 153 q 485 102 452 62 q 419 21 382 -2 q 344 -26 310 -26 l 310 -26 q 273 -26 259 -1 q 244 23 244 49 l 244 49 q 244 66 249 94 q 254 122 263 156 l 263 156 q 231 103 195 61 q 159 18 125 -6 q 90 -30 59 -30 z"},"e":{"ha":333,"x_min":0,"x_max":333,"o":"m 108 -44 l 108 -44 q 47 -44 17 -10 q -14 23 -14 72 l -14 72 q -14 117 9 167 q 31 217 69 261 q 106 305 151 333 q 196 360 240 360 l 240 360 q 263 360 283 348 q 302 336 302 299 l 302 299 q 302 261 280 228 q 257 194 221 168 q 184 142 141 126 q 97 109 54 105 l 54 105 q 52 95 51 86 q 50 77 50 69 l 50 69 q 50 54 54 39 q 57 24 66 12 q 75 -1 91 -8 q 106 -15 129 -15 l 129 -15 q 172 -15 214 10 q 256 34 292 74 q 328 114 353 162 l 353 162 l 365 153 q 338 93 297 49 q 255 5 207 -19 q 158 -44 108 -44 z m 59 124 l 59 124 q 86 133 120 151 q 154 168 186 192 q 217 216 238 245 q 258 274 258 306 l 258 306 q 258 317 254 323 q 250 329 237 329 l 237 329 q 213 329 186 311 q 159 292 134 262 q 109 232 89 196 q 69 160 59 124 z"},"f":{"ha":312,"x_min":0,"x_max":312,"o":"m -13 -280 l -13 -280 q -23 -280 -36 -273 q -49 -267 -58 -248 q -68 -229 -68 -192 l -68 -192 q -68 -148 -53 -77 q -38 -7 -12 78 q 14 163 48 253 q 82 342 122 426 q 161 509 203 576 q 244 642 284 681 q 324 720 360 720 l 360 720 q 381 720 388 707 q 394 694 394 676 l 394 676 q 394 633 371 582 q 347 531 308 480 q 269 428 222 382 q 175 335 127 302 l 127 302 q 122 290 118 278 q 113 265 108 252 l 108 252 q 119 250 126 241 q 132 231 133 220 l 133 220 q 140 175 148 140 q 156 104 173 84 q 189 64 220 64 l 220 64 q 255 64 279 90 q 303 115 331 162 l 331 162 l 346 152 q 321 92 283 65 q 244 38 215 38 l 215 38 q 197 38 178 47 q 158 56 141 71 l 141 71 q 141 8 128 -54 q 114 -116 92 -167 q 70 -218 43 -249 q 16 -280 -13 -280 z m 13 -232 l 13 -232 q 24 -232 38 -212 q 52 -192 66 -159 q 79 -127 90 -88 q 101 -49 108 -10 q 115 29 115 60 l 115 60 q 115 91 107 117 q 99 142 81 177 l 81 177 q 56 102 36 32 q 16 -38 5 -94 q -6 -150 -6 -184 l -6 -184 q -6 -232 13 -232 z m 143 343 l 143 343 q 208 403 256 464 q 303 524 329 572 q 355 619 355 639 l 355 639 q 355 653 341 653 l 341 653 q 315 653 282 611 q 249 568 213 498 q 177 428 143 343 z"},"g":{"ha":389,"x_min":0,"x_max":389,"o":"m 38 -280 l 38 -280 q 16 -280 -2 -266 q -20 -253 -20 -222 l -20 -222 q -20 -192 -1 -166 q 17 -141 46 -119 q 75 -98 110 -80 q 144 -62 175 -46 l 175 -46 q 189 -11 202 30 q 214 70 226 119 l 226 119 q 188 64 147 28 q 105 -9 63 -9 l 63 -9 q 27 -9 8 18 q -12 45 -12 88 l -12 88 q -12 140 14 187 q 39 234 80 270 q 121 306 167 327 q 213 347 253 347 l 253 347 q 282 347 295 338 q 307 328 307 315 l 307 315 q 307 306 302 301 q 297 296 295 295 l 295 295 q 290 303 280 307 q 270 310 255 310 l 255 310 q 216 310 180 287 q 143 264 115 228 q 87 192 71 154 q 54 115 54 83 l 54 83 q 54 59 64 47 q 73 34 89 34 l 89 34 q 118 34 159 73 q 199 111 237 166 l 237 166 q 240 180 243 191 q 245 202 249 219 l 249 219 q 252 233 264 252 q 275 270 300 270 l 300 270 q 305 270 310 270 q 315 269 321 267 l 321 267 q 321 251 312 209 q 302 166 285 110 q 267 53 244 -7 l 244 -7 q 277 9 309 34 q 340 59 366 92 q 392 124 407 162 l 407 162 l 420 152 q 405 107 372 70 q 339 33 302 6 q 264 -21 233 -36 l 233 -36 q 205 -103 174 -158 q 143 -214 110 -247 q 76 -280 38 -280 z m 35 -248 l 35 -248 q 55 -248 90 -208 q 124 -169 164 -73 l 164 -73 q 124 -93 90 -114 q 55 -136 33 -160 q 11 -184 11 -213 l 11 -213 q 11 -229 18 -238 q 25 -248 35 -248 z"},"h":{"ha":476,"x_min":0,"x_max":476,"o":"m 47 -38 l 47 -38 q 28 -38 17 -6 q 6 26 6 66 l 6 66 q 6 114 22 180 q 38 246 64 319 q 90 392 123 462 q 155 532 189 589 q 223 646 253 680 q 283 714 305 714 l 305 714 q 323 714 331 693 q 338 671 338 651 l 338 651 q 338 623 326 583 q 313 543 291 498 q 269 452 240 408 q 211 364 177 328 q 143 291 108 270 l 108 270 q 96 241 88 205 q 79 169 75 135 q 71 100 71 73 l 71 73 q 71 62 72 54 q 72 46 73 39 l 73 39 q 87 80 104 119 q 120 157 139 190 q 158 222 180 247 q 201 271 225 285 q 249 298 276 298 l 276 298 q 304 298 321 285 q 337 271 345 251 q 352 230 352 208 l 352 208 q 352 177 342 148 q 331 119 320 92 q 309 65 309 40 l 309 40 q 309 20 318 11 q 326 2 339 2 l 339 2 q 362 2 391 24 q 419 46 447 83 q 475 119 495 162 l 495 162 l 508 150 q 487 101 457 62 q 427 22 391 -1 q 355 -24 316 -24 l 316 -24 q 282 -24 265 -6 q 247 12 247 39 l 247 39 q 247 60 255 86 q 263 112 271 139 q 278 166 278 190 l 278 190 q 278 216 267 227 q 256 238 240 238 l 240 238 q 215 238 195 218 q 175 198 159 167 q 142 135 128 100 q 113 65 100 34 q 87 2 74 -18 q 61 -38 47 -38 z m 121 309 l 121 309 q 149 331 176 365 q 202 399 225 438 q 248 476 266 513 q 284 550 294 580 q 304 610 304 625 l 304 625 q 304 630 303 632 q 302 633 300 633 l 300 633 q 293 633 272 606 q 250 578 222 532 q 194 486 167 428 q 140 370 121 309 z"},"i":{"ha":241,"x_min":0,"x_max":241,"o":"m 72 -26 l 72 -26 q 33 -26 14 -1 q -5 23 -5 58 l -5 58 q -5 81 4 116 q 12 151 26 190 q 40 228 59 262 q 77 296 98 318 q 119 339 139 339 l 139 339 q 148 339 155 334 q 161 328 161 317 l 161 317 q 161 305 146 278 q 130 251 109 216 q 88 181 73 143 q 57 104 57 69 l 57 69 q 57 33 69 21 q 81 9 106 9 l 106 9 q 140 9 179 43 q 217 77 260 162 l 260 162 l 269 152 q 240 66 186 20 q 131 -26 72 -26 z m 192 432 l 192 432 q 176 432 164 440 q 151 448 151 465 l 151 465 q 151 486 176 502 q 200 517 224 517 l 224 517 q 239 517 248 510 q 257 503 257 486 l 257 486 q 257 467 237 450 q 216 432 192 432 z"},"j":{"ha":218,"x_min":0,"x_max":218,"o":"m -140 -280 l -140 -280 q -165 -280 -178 -265 q -192 -251 -192 -229 l -192 -229 q -192 -192 -156 -148 q -121 -104 -66 -73 l -66 -73 q -52 -65 -36 -58 q -21 -51 -2 -41 l -2 -41 q 18 7 35 69 q 52 130 65 205 l 65 205 q 50 178 38 158 q 25 138 18 126 l 18 126 l 9 141 q 26 172 40 208 q 53 243 66 275 q 78 307 91 327 q 104 347 119 347 l 119 347 q 130 347 137 339 q 143 330 143 317 l 143 317 q 143 306 138 275 q 132 243 122 198 q 111 152 96 99 q 81 46 63 -8 l 63 -8 q 92 9 121 27 q 150 45 180 75 q 209 105 237 157 l 237 157 l 250 150 q 225 91 191 57 q 156 22 120 2 q 84 -18 53 -36 l 53 -36 q 31 -98 2 -154 q -28 -210 -63 -245 q -99 -280 -140 -280 z m -149 -246 l -149 -246 q -129 -246 -91 -202 q -54 -159 -15 -73 l -15 -73 q -91 -110 -128 -150 q -166 -190 -166 -222 l -166 -222 q -166 -235 -161 -240 q -156 -246 -149 -246 z m 135 437 l 135 437 q 119 437 107 445 q 95 453 95 469 l 95 469 q 95 484 107 496 q 118 508 135 515 q 152 522 168 522 l 168 522 q 182 522 192 515 q 201 508 201 494 l 201 494 q 201 472 181 455 q 160 437 135 437 z"},"k":{"ha":446,"x_min":0,"x_max":446,"o":"m 297 -38 l 297 -38 q 269 -38 249 -19 q 229 0 218 29 q 206 58 201 89 q 195 119 195 142 l 195 142 q 206 142 227 148 q 248 153 270 165 q 292 176 308 195 q 323 213 323 238 l 323 238 q 323 259 308 271 q 293 283 273 283 l 273 283 q 242 283 215 262 q 188 240 167 206 q 145 171 128 132 q 111 93 99 58 q 87 23 79 0 l 79 0 q 73 -18 62 -24 q 51 -31 39 -31 l 39 -31 q 22 -31 15 -17 q 7 -3 6 19 q 4 40 4 63 l 4 63 q 4 115 21 183 q 38 251 67 325 q 95 398 129 467 q 163 536 197 592 q 231 648 260 681 q 289 714 307 714 l 307 714 q 321 714 330 695 q 338 676 338 649 l 338 649 q 338 615 323 573 q 308 530 281 487 q 253 444 216 406 q 178 368 134 341 l 134 341 q 101 260 85 184 q 68 107 68 55 l 68 55 q 84 95 107 143 q 129 191 158 235 q 187 279 221 307 q 255 335 292 335 l 292 335 q 329 335 355 309 q 381 283 381 246 l 381 246 q 381 214 365 192 q 348 169 325 156 q 301 142 278 136 q 254 129 239 129 l 239 129 q 240 121 245 100 q 250 79 260 56 q 269 33 283 17 q 297 0 317 0 l 317 0 q 346 0 372 22 q 398 44 422 81 q 445 117 465 163 l 465 163 l 475 153 q 461 104 432 61 q 403 17 368 -10 q 332 -38 297 -38 z m 151 381 l 151 381 q 197 418 232 465 q 266 512 285 556 q 304 599 304 624 l 304 624 q 304 629 304 631 q 303 633 301 633 l 301 633 q 291 633 267 598 q 242 563 211 506 q 180 448 151 381 z"},"l":{"ha":236,"x_min":0,"x_max":236,"o":"m 83 -30 l 83 -30 q 40 -30 22 0 q 3 29 3 73 l 3 73 q 3 121 21 187 q 39 253 69 326 q 98 399 133 469 q 168 538 203 595 q 238 652 268 686 q 297 720 314 720 l 314 720 q 325 720 332 708 q 339 695 343 678 q 347 660 347 646 l 347 646 q 347 619 334 576 q 320 532 296 479 q 271 425 238 371 q 204 316 165 266 q 125 216 81 180 l 81 180 q 75 153 72 128 q 68 102 68 79 l 68 79 q 68 40 79 21 q 90 2 112 2 l 112 2 q 139 2 166 26 q 192 50 216 87 q 239 123 256 162 l 256 162 l 271 154 q 231 69 184 20 q 137 -30 83 -30 z m 90 214 l 90 214 q 125 249 158 295 q 191 340 220 389 q 248 438 270 484 q 292 530 304 567 q 316 603 316 623 l 316 623 q 316 633 314 636 q 311 639 309 639 l 309 639 q 301 639 282 614 q 262 588 236 545 q 210 502 183 447 q 156 392 132 332 q 107 272 90 214 z"},"m":{"ha":646,"x_min":0,"x_max":646,"o":"m 504 -31 l 504 -31 q 469 -31 453 -9 q 437 12 437 42 l 437 42 q 437 67 445 92 q 452 117 460 141 q 467 165 467 184 l 467 184 q 467 204 458 212 q 449 220 438 220 l 438 220 q 413 220 384 181 q 354 142 307 71 l 307 71 q 291 47 280 23 q 269 -2 259 -22 l 259 -22 q 251 -22 239 -20 q 227 -18 218 -13 q 208 -9 208 -2 l 208 -2 q 208 5 218 32 q 227 58 240 94 q 252 129 262 166 q 271 202 271 228 l 271 228 q 271 245 266 256 q 260 266 246 266 l 246 266 q 224 266 193 240 q 162 213 129 170 q 96 127 67 76 q 37 24 19 -27 l 19 -27 q 10 -27 -3 -24 q -16 -21 -25 -16 q -35 -11 -35 -6 l -35 -6 q -35 0 -24 30 q -14 59 0 101 q 13 142 24 185 q 34 228 34 261 l 34 261 q 40 268 53 275 q 66 282 80 282 l 80 282 q 94 282 101 275 q 107 268 107 256 l 107 256 q 107 243 100 212 q 92 180 81 142 l 81 142 q 101 174 127 208 q 152 241 180 269 q 208 297 237 315 q 265 332 292 332 l 292 332 q 323 332 335 310 q 346 287 346 256 l 346 256 q 346 231 341 204 q 335 176 328 153 q 321 129 315 115 l 315 115 q 336 153 362 189 q 387 224 417 247 q 447 269 481 269 l 481 269 q 513 269 526 250 q 538 231 538 205 l 538 205 q 538 179 529 148 q 520 117 511 88 q 501 59 501 38 l 501 38 q 501 25 508 15 q 514 4 531 4 l 531 4 q 559 4 584 30 q 608 55 629 92 q 650 128 665 162 l 665 162 l 677 148 q 661 106 636 65 q 611 23 578 -4 q 544 -31 504 -31 z"},"n":{"ha":466,"x_min":0,"x_max":466,"o":"m 323 -20 l 323 -20 q 288 -20 271 -2 q 253 16 253 44 l 253 44 q 253 65 261 88 q 268 111 275 136 q 282 160 282 183 l 282 183 q 282 211 271 222 q 259 232 242 232 l 242 232 q 211 232 179 207 q 147 181 117 142 q 87 102 61 60 q 35 18 15 -15 l 15 -15 q -1 -15 -15 -9 q -30 -4 -38 7 l -38 7 q -38 12 -27 38 q -17 64 -3 102 q 11 140 22 180 q 33 220 33 253 l 33 253 q 39 260 52 267 q 65 274 79 274 l 79 274 q 106 274 106 248 l 106 248 q 106 232 97 195 q 88 157 74 116 l 74 116 q 101 157 135 198 q 168 238 206 265 q 244 292 282 292 l 282 292 q 321 292 339 264 q 356 236 356 202 l 356 202 q 356 171 346 145 q 336 118 326 94 q 315 69 315 44 l 315 44 q 315 23 324 15 q 332 6 345 6 l 345 6 q 370 6 395 30 q 420 53 444 89 q 467 125 485 162 l 485 162 l 496 149 q 475 100 449 62 q 423 24 392 2 q 361 -20 323 -20 z"},"o":{"ha":365,"x_min":0,"x_max":365,"o":"m 69 -32 l 69 -32 q 26 -32 8 -5 q -10 21 -10 59 l -10 59 q -10 90 0 123 q 10 156 27 185 q 43 214 64 232 q 84 250 105 250 l 105 250 q 110 250 116 249 q 121 247 126 245 l 126 245 q 117 237 105 216 q 92 194 81 167 q 70 139 63 112 q 55 85 55 66 l 55 66 q 55 36 65 23 q 75 9 91 9 l 91 9 q 112 9 141 32 q 170 54 198 89 l 198 89 q 170 112 155 150 q 139 187 139 226 l 139 226 q 139 259 151 288 q 162 317 184 335 q 206 352 237 352 l 237 352 q 278 352 292 330 q 306 308 306 275 l 306 275 q 306 236 287 189 q 268 141 239 97 l 239 97 q 257 87 277 87 l 277 87 q 293 87 313 94 q 333 100 353 116 q 372 132 384 159 l 384 159 l 396 149 q 376 102 340 83 q 303 63 270 63 l 270 63 q 257 63 245 66 q 233 68 222 73 l 222 73 q 188 28 148 -2 q 107 -32 69 -32 z m 216 115 l 216 115 q 241 152 258 193 q 274 233 274 269 l 274 269 q 274 298 266 312 q 257 325 244 325 l 244 325 q 224 325 203 296 q 182 267 182 223 l 182 223 q 182 194 191 165 q 199 135 216 115 z"},"p":{"ha":391,"x_min":0,"x_max":391,"o":"m -63 -280 l -63 -280 q -71 -280 -78 -271 q -86 -263 -90 -253 q -94 -244 -94 -242 l -94 -242 q -80 -193 -66 -154 q -53 -116 -39 -75 q -26 -35 -13 20 q 0 74 14 155 q 28 236 42 356 l 42 356 q 43 365 46 369 q 49 373 61 373 l 61 373 q 87 373 98 359 q 109 344 109 327 l 109 327 q 109 313 103 277 q 97 241 86 192 l 86 192 q 103 225 129 259 q 154 293 187 316 q 220 339 259 339 l 259 339 q 303 339 332 308 q 360 276 360 225 l 360 225 q 360 186 343 143 q 325 99 294 61 q 262 22 219 -2 q 176 -26 124 -26 l 124 -26 q 98 -26 82 -20 q 66 -14 66 -8 l 66 -8 q 66 -4 74 -3 q 81 -3 91 -3 l 91 -3 q 131 -3 168 17 q 204 36 233 68 q 262 100 279 139 q 295 178 295 216 l 295 216 q 295 248 282 271 q 268 293 238 293 l 238 293 q 212 293 187 277 q 161 260 139 235 q 116 209 99 182 q 81 154 72 132 l 72 132 q 54 57 36 -12 q 18 -82 2 -138 q -15 -195 -28 -231 q -42 -267 -51 -275 l -51 -275 q -56 -280 -63 -280 z"},"q":{"ha":401,"x_min":0,"x_max":401,"o":"m 194 -280 l 194 -280 q 180 -280 170 -265 q 159 -250 159 -207 l 159 -207 q 159 -172 167 -120 q 174 -68 187 -10 q 200 47 218 98 l 218 98 q 178 41 138 6 q 97 -30 60 -30 l 60 -30 q 43 -30 26 -21 q 8 -13 -3 6 q -15 25 -15 56 l -15 56 q -15 91 1 132 q 17 172 45 212 q 73 252 109 285 q 145 317 185 337 q 225 357 265 357 l 265 357 q 299 357 322 343 q 344 329 344 308 l 344 308 q 344 299 340 290 q 335 280 326 275 l 326 275 q 321 271 311 271 l 311 271 q 311 293 298 310 q 285 326 254 326 l 254 326 q 221 326 191 307 q 161 287 137 257 q 112 226 94 191 q 75 155 65 122 q 55 89 55 66 l 55 66 q 55 44 65 31 q 74 18 90 18 l 90 18 q 110 18 133 37 q 156 56 181 87 q 205 118 230 156 q 254 193 277 230 l 277 230 q 284 241 291 247 q 297 253 304 257 l 304 257 q 315 262 324 261 q 332 260 336 256 l 336 256 q 341 251 341 243 l 341 243 q 341 227 325 200 q 308 173 288 132 q 267 90 253 29 l 253 29 q 296 33 339 61 q 382 88 420 161 l 420 161 l 432 150 q 399 74 349 42 q 298 10 251 5 l 251 5 q 259 -21 264 -49 q 268 -77 268 -108 l 268 -108 q 268 -155 259 -194 q 249 -233 232 -256 q 215 -280 194 -280 z m 221 -225 l 221 -225 q 229 -225 235 -206 q 240 -187 243 -157 q 246 -128 246 -99 l 246 -99 q 246 -79 245 -60 q 243 -42 239 -24 l 239 -24 q 226 -77 220 -123 q 213 -170 213 -197 l 213 -197 q 213 -210 215 -217 q 217 -225 221 -225 z"},"r":{"ha":348,"x_min":0,"x_max":348,"o":"m 173 -26 l 173 -26 q 139 -26 120 -8 q 100 10 100 39 l 100 39 q 100 69 114 102 q 128 135 142 168 q 155 200 155 226 l 155 226 q 155 258 137 274 q 118 289 99 302 l 99 302 q 76 243 51 190 q 26 137 10 110 l 10 110 l 1 127 q 15 153 38 203 q 60 253 82 317 l 82 317 q 72 327 72 341 l 72 341 q 72 371 89 390 q 106 409 114 409 l 114 409 q 125 409 127 400 q 128 390 128 385 l 128 385 q 128 380 123 366 q 117 351 117 348 l 117 348 q 117 334 133 323 q 148 311 168 297 q 188 282 204 262 q 219 241 219 209 l 219 209 q 219 179 207 148 q 194 117 182 89 q 169 61 169 40 l 169 40 q 169 22 178 16 q 187 10 199 10 l 199 10 q 223 10 249 25 q 274 40 298 63 q 322 86 341 112 q 360 137 369 159 l 369 159 l 382 149 q 363 107 330 67 q 297 26 257 0 q 216 -26 173 -26 z"},"s":{"ha":345,"x_min":0,"x_max":345,"o":"m 105 -51 l 105 -51 q 58 -51 31 -30 q 3 -10 -8 20 q -20 50 -20 80 l -20 80 q -20 110 -12 126 q -4 142 8 150 q 19 158 30 162 q 40 166 44 170 l 44 170 q 74 203 99 239 q 124 275 143 315 l 143 315 l 143 327 q 143 364 156 380 q 168 395 182 395 l 182 395 q 190 395 194 391 q 198 387 198 382 l 198 382 q 198 377 195 366 q 192 355 192 338 l 192 338 q 192 305 205 267 q 218 228 231 186 q 244 143 244 97 l 244 97 q 244 84 243 72 q 241 59 238 48 l 238 48 q 273 54 304 80 q 335 105 364 161 l 364 161 l 373 151 q 354 96 316 68 q 278 39 233 32 l 233 32 q 217 -11 183 -31 q 148 -51 105 -51 z m 107 -16 l 107 -16 q 119 -16 139 -8 q 159 0 170 33 l 170 33 q 128 41 96 66 q 63 91 47 116 l 47 116 q 25 115 25 81 l 25 81 q 25 45 47 15 q 68 -16 107 -16 z m 175 49 l 175 49 q 177 59 178 70 q 179 81 179 96 l 179 96 q 179 143 168 190 q 156 236 148 277 l 148 277 q 125 239 100 205 q 74 170 51 147 l 51 147 q 66 115 98 87 q 129 59 175 49 z"},"t":{"ha":285,"x_min":0,"x_max":285,"o":"m 85 -46 l 85 -46 q 42 -46 19 -21 q -4 4 -4 53 l -4 53 q -4 97 13 162 q 29 226 54 294 l 54 294 q 44 296 35 298 q 26 299 18 302 l 18 302 l 18 320 q 26 319 37 318 q 48 317 62 316 l 62 316 q 83 370 107 421 q 131 471 155 511 q 178 550 200 574 q 221 597 236 597 l 236 597 q 244 597 251 592 q 257 586 257 575 l 257 575 q 257 558 236 520 q 215 481 184 428 q 153 375 124 313 l 124 313 q 133 313 143 313 q 152 313 161 313 l 161 313 q 194 313 231 314 q 267 315 304 319 l 304 319 l 304 301 q 249 295 206 292 q 162 289 128 289 l 128 289 q 124 289 121 289 q 117 289 113 289 l 113 289 q 90 236 74 180 q 58 124 58 71 l 58 71 q 58 28 71 10 q 84 -9 114 -9 l 114 -9 q 166 -9 216 37 q 266 83 304 162 l 304 162 l 317 152 q 293 96 257 51 q 220 6 176 -20 q 132 -46 85 -46 z"},"u":{"ha":438,"x_min":0,"x_max":438,"o":"m 75 -30 l 75 -30 q 41 -30 21 1 q 0 31 0 71 l 0 71 q 0 100 10 138 q 19 176 33 213 q 47 250 62 274 q 77 298 88 298 l 88 298 q 93 298 105 293 q 117 287 125 278 l 125 278 q 114 261 98 226 q 82 191 70 151 q 58 111 58 77 l 58 77 q 58 69 60 53 q 62 36 70 23 q 78 10 94 10 l 94 10 q 113 10 133 30 q 153 49 174 80 q 194 111 213 147 q 232 183 249 216 q 265 249 276 271 l 276 271 q 282 270 294 267 q 305 264 315 259 q 324 254 324 245 l 324 245 q 324 241 314 219 q 304 196 291 164 q 277 131 267 98 q 257 65 257 40 l 257 40 q 257 22 265 11 q 272 0 290 0 l 290 0 q 311 0 341 19 q 371 38 402 75 q 433 111 457 162 l 457 162 l 470 153 q 449 99 415 58 q 381 16 343 -7 q 305 -30 269 -30 l 269 -30 q 243 -30 228 -20 q 212 -10 206 7 q 199 24 199 44 l 199 44 q 199 56 201 69 q 203 81 206 94 l 206 94 q 188 61 167 33 q 146 4 123 -13 q 100 -30 75 -30 z"},"v":{"ha":407,"x_min":0,"x_max":407,"o":"m 65 -39 l 65 -39 q 34 -39 22 -8 q 10 22 10 71 l 10 71 q 10 73 11 103 q 12 132 16 202 l 16 202 q 18 229 22 239 q 26 249 48 249 l 48 249 q 65 249 70 243 q 74 236 74 217 l 74 217 q 74 184 70 140 q 65 95 65 56 l 65 56 q 65 27 70 14 q 75 0 88 0 l 88 0 q 106 0 128 21 q 150 41 173 75 q 196 108 217 146 q 237 184 253 219 l 253 219 q 255 287 268 310 q 280 332 299 332 l 299 332 q 318 332 327 319 q 335 305 335 294 l 335 294 q 335 281 327 267 q 318 253 309 229 q 300 205 300 160 l 300 160 q 300 144 303 126 q 306 108 316 96 q 326 84 347 84 l 347 84 q 368 84 388 101 q 407 117 426 158 l 426 158 l 439 148 q 417 98 391 81 q 364 64 340 64 l 340 64 q 307 64 285 88 q 263 112 256 161 l 256 161 q 232 112 200 67 q 167 21 132 -9 q 97 -39 65 -39 z"},"w":{"ha":617,"x_min":0,"x_max":617,"o":"m 282 -39 l 282 -39 q 251 -39 240 -10 q 228 18 228 58 l 228 58 q 228 78 230 102 q 232 125 235 148 l 235 148 q 213 104 188 63 q 162 22 134 -4 q 106 -30 75 -30 l 75 -30 q 42 -30 21 0 q 0 30 0 71 l 0 71 q 0 100 10 138 q 19 176 33 213 q 47 250 62 274 q 77 298 88 298 l 88 298 q 93 298 109 293 q 125 287 125 278 l 125 278 q 114 261 98 226 q 82 191 70 151 q 58 110 58 77 l 58 77 q 58 69 60 53 q 62 36 70 23 q 77 10 93 10 l 93 10 q 116 10 142 39 q 168 68 194 112 q 220 156 243 201 l 243 201 q 251 242 257 261 q 262 280 268 286 q 274 291 283 291 l 283 291 q 296 291 304 286 q 312 280 312 269 l 312 269 q 312 267 312 264 q 311 261 310 258 l 310 258 q 303 234 297 198 q 290 161 286 122 q 282 83 282 49 l 282 49 q 282 26 287 13 q 292 0 304 0 l 304 0 q 319 0 339 19 q 359 37 381 68 q 402 98 423 134 q 443 170 459 205 l 459 205 q 459 257 467 285 q 474 312 486 322 q 497 332 509 332 l 509 332 q 528 332 537 319 q 545 305 545 294 l 545 294 q 545 287 542 280 q 539 272 534 263 l 534 263 q 526 248 518 225 q 510 201 510 160 l 510 160 q 510 144 513 126 q 516 108 526 96 q 536 84 557 84 l 557 84 q 578 84 598 101 q 617 117 636 158 l 636 158 l 649 148 q 627 98 601 81 q 574 64 550 64 l 550 64 q 519 64 498 85 q 476 106 466 148 l 466 148 q 441 102 410 59 q 379 16 346 -11 q 313 -39 282 -39 z"},"x":{"ha":418,"x_min":0,"x_max":418,"o":"m 44 -59 l 44 -59 q 40 -59 37 -55 q 34 -51 34 -44 l 34 -44 q 34 -32 55 -1 q 76 29 110 71 q 143 113 182 156 l 182 156 q 177 203 169 238 q 161 272 138 272 l 138 272 q 114 272 95 252 q 76 231 58 199 q 40 166 19 129 l 19 129 l 10 145 q 24 172 37 201 q 49 230 64 255 q 79 280 101 296 q 122 311 154 311 l 154 311 q 193 311 212 284 q 230 256 237 216 l 237 216 q 284 265 322 299 q 360 332 373 332 l 373 332 q 378 332 388 329 q 398 326 398 321 l 398 321 q 387 321 363 302 q 339 282 308 249 q 277 216 243 177 l 243 177 q 246 147 248 117 q 250 87 255 63 q 259 39 269 25 q 279 10 297 10 l 297 10 q 315 10 336 25 q 356 40 376 64 q 395 87 412 113 q 428 139 438 161 l 438 161 l 448 151 q 434 108 406 68 q 377 27 342 1 q 307 -26 272 -26 l 272 -26 q 243 -26 226 -6 q 209 13 201 45 q 192 76 187 111 l 187 111 q 145 61 110 16 q 74 -29 56 -52 l 56 -52 q 50 -59 44 -59 z"},"y":{"ha":389,"x_min":0,"x_max":389,"o":"m 43 -280 l 43 -280 q 18 -280 -1 -266 q -20 -253 -20 -227 l -20 -227 q -20 -195 -4 -170 q 12 -145 39 -124 q 66 -103 101 -84 q 136 -65 174 -46 l 174 -46 q 188 -9 203 37 q 217 82 230 137 l 230 137 q 198 85 162 48 q 125 10 84 10 l 84 10 q 65 10 47 19 q 28 27 16 45 q 4 63 4 91 l 4 91 q 4 119 14 156 q 23 193 37 228 q 51 263 66 286 q 81 309 92 309 l 92 309 q 96 309 107 306 q 117 303 127 298 q 136 292 136 286 l 136 286 q 127 273 116 249 q 105 225 95 196 q 84 166 77 138 q 70 110 70 90 l 70 90 q 70 72 78 61 q 86 50 106 50 l 106 50 q 125 50 149 69 q 172 87 196 116 q 219 145 239 178 l 239 178 q 242 189 245 201 q 247 212 249 224 l 249 224 q 252 238 264 257 q 275 275 300 275 l 300 275 q 305 275 310 275 q 315 274 321 272 l 321 272 q 321 256 312 213 q 302 169 285 111 q 267 53 243 -8 l 243 -8 q 290 10 335 52 q 380 93 408 162 l 408 162 l 421 152 q 406 104 376 69 q 345 33 307 8 q 269 -18 232 -35 l 232 -35 q 206 -99 176 -155 q 145 -211 112 -245 q 78 -280 43 -280 z m 38 -248 l 38 -248 q 53 -248 89 -208 q 124 -169 164 -70 l 164 -70 q 123 -92 88 -113 q 53 -135 32 -160 q 11 -185 11 -218 l 11 -218 q 11 -226 17 -237 q 23 -248 38 -248 z"},"z":{"ha":317,"x_min":0,"x_max":317,"o":"m -5 -280 l -5 -280 q -36 -280 -53 -268 q -71 -257 -71 -229 l -71 -229 q -71 -197 -49 -169 q -28 -142 8 -117 q 44 -92 88 -66 q 131 -41 174 -12 l 174 -12 q 174 24 159 54 q 144 84 105 115 l 105 115 q 140 125 165 150 q 189 175 202 206 q 214 236 214 262 l 214 262 q 214 285 205 300 q 195 315 175 315 l 175 315 q 142 315 116 290 q 90 265 68 224 q 46 183 23 134 l 23 134 l 11 144 q 33 204 57 251 q 80 298 112 326 q 144 353 189 353 l 189 353 q 223 353 248 331 q 272 309 272 271 l 272 271 q 272 235 255 204 q 238 173 211 150 q 184 126 154 111 l 154 111 q 180 91 198 69 q 215 46 224 21 l 224 21 q 262 50 292 85 q 321 119 335 162 l 335 162 l 346 150 q 332 105 301 69 q 270 32 230 2 l 230 2 q 232 -5 233 -14 q 234 -23 234 -31 l 234 -31 q 234 -76 214 -120 q 194 -165 160 -201 q 126 -237 84 -258 q 41 -280 -5 -280 z m -12 -251 l -12 -251 q 6 -251 35 -236 q 64 -222 94 -194 q 124 -167 146 -127 q 168 -87 173 -35 l 173 -35 q 133 -60 95 -82 q 56 -105 25 -126 q -6 -148 -24 -170 q -43 -193 -43 -218 l -43 -218 q -43 -235 -34 -243 q -25 -251 -12 -251 z"},"{":{"ha":260,"x_min":0,"x_max":260,"o":"m 102 -87 l 102 -87 q 65 -87 51 -66 q 37 -46 37 -21 l 37 -21 q 37 5 48 37 q 59 68 74 102 q 89 136 100 170 q 111 203 111 233 l 111 233 q 111 263 105 288 q 98 313 75 331 l 75 331 q 110 335 127 363 q 144 390 151 432 q 158 473 161 518 l 161 518 q 164 556 168 592 q 172 627 181 657 q 190 686 208 703 q 225 720 255 720 l 255 720 q 268 720 280 716 q 291 711 300 700 q 308 688 310 667 l 310 667 q 302 672 294 677 q 285 681 277 681 l 277 681 q 255 681 243 654 q 231 626 225 584 q 218 541 212 495 l 212 495 q 207 453 200 415 q 192 377 179 353 q 165 328 141 325 l 141 325 q 155 311 161 295 q 167 279 167 256 l 167 256 q 167 210 156 171 q 144 131 129 97 q 114 62 103 31 q 91 0 91 -30 l 91 -30 q 91 -43 98 -52 q 105 -62 124 -62 l 124 -62 q 139 -62 149 -54 l 149 -54 q 148 -73 134 -80 q 119 -87 102 -87 z"},"|":{"ha":259,"x_min":0,"x_max":259,"o":"m 55 -132 l 55 -132 q 67 -99 77 -43 q 87 12 96 82 q 104 152 111 228 q 118 304 124 378 q 130 452 136 517 q 142 582 148 629 q 153 676 159 697 l 159 697 q 171 692 177 682 q 183 671 185 660 q 187 649 187 640 l 187 640 q 187 605 185 547 q 183 488 180 418 q 176 348 172 278 q 167 208 163 149 q 158 89 154 52 l 154 52 q 145 -34 123 -83 q 100 -132 55 -132 z"},"}":{"ha":256,"x_min":0,"x_max":256,"o":"m 36 -87 l 36 -87 q 23 -87 11 -82 q -2 -78 -10 -66 q -19 -54 -21 -34 l -21 -34 q -3 -46 13 -46 l 13 -46 q 34 -46 46 -20 q 58 6 66 46 q 73 86 78 129 l 78 129 q 83 173 91 218 q 99 263 114 298 q 129 333 156 347 l 156 347 q 142 363 137 382 q 131 400 131 419 l 131 419 q 131 451 142 487 q 152 522 167 557 q 181 592 192 622 q 202 651 202 672 l 202 672 q 202 678 200 683 q 198 687 190 687 l 190 687 q 186 687 177 684 q 167 680 154 670 l 154 670 q 156 691 176 706 q 196 720 222 720 l 222 720 q 242 720 252 710 q 262 699 262 686 l 262 686 q 262 669 251 641 q 240 612 225 577 q 210 542 199 505 q 188 468 188 434 l 188 434 q 188 408 194 382 q 200 355 223 339 l 223 339 q 187 330 169 299 q 150 268 143 224 q 135 179 131 131 l 131 131 q 128 91 124 52 q 119 13 111 -18 q 102 -50 84 -68 q 66 -87 36 -87 z"},"~":{"ha":435,"x_min":0,"x_max":435,"o":"m 269 129 l 269 129 q 241 129 211 139 q 180 149 149 159 q 118 168 86 168 l 86 168 q 74 168 63 167 q 51 165 40 160 l 40 160 q 60 186 81 196 q 101 206 123 206 l 123 206 q 144 206 167 200 q 189 193 213 184 q 237 175 263 169 q 289 162 317 162 l 317 162 q 325 162 333 163 q 340 164 347 165 l 347 165 q 329 145 310 137 q 290 129 269 129 z"}}}
